<svg xmlns="http://www.w3.org/2000/svg" width="14" height="14" fill="none"><path fill="#fff" d="M10.504 12a.518.518 0 0 1-.363-.14.518.518 0 0 1-.141-.364v-1.324c0-.578-.125-1.082-.375-1.512-.25-.437-.543-.656-.879-.656H5.254c-.336 0-.629.219-.879.656-.25.43-.375.934-.375 1.512v1.324c0 .14-.05.262-.152.363a.477.477 0 0 1-.352.141.503.503 0 0 1-.351-.14.517.517 0 0 1-.141-.364v-1.324c0-.445.058-.863.176-1.254.11-.383.265-.715.468-.996.204-.29.442-.516.715-.68a1.7 1.7 0 0 1 .89-.246h3.493c.32 0 .617.082.89.246.274.164.512.39.716.68.203.281.359.613.468.996.117.39.176.809.176 1.254v1.324c0 .14-.05.262-.152.363a.463.463 0 0 1-.34.141ZM8.688 5.18c.132-.14.238-.301.316-.48.078-.18.117-.376.117-.587v-.082a.26.26 0 0 0-.012-.082v.012a2.086 2.086 0 0 0-.68-1.371A2.105 2.105 0 0 0 7 2.004a2.124 2.124 0 0 0-1.441.598 2.072 2.072 0 0 0-.668 1.37v.012a.221.221 0 0 0-.012.07v.06c0 .21.039.41.117.597.078.18.184.336.316.469.204.18.434.324.692.433.266.102.543.153.832.153h.176H7h.187c.29 0 .563-.051.82-.153a2.35 2.35 0 0 0 .68-.433Zm-1.711-.422a.221.221 0 0 1-.07.012h-.06a1.4 1.4 0 0 1-.445-.07 1.289 1.289 0 0 1-.375-.223.721.721 0 0 1-.117-.153.563.563 0 0 1-.035-.199v-.047a1.17 1.17 0 0 1 .363-.738c.211-.211.465-.324.762-.34.29.016.54.125.75.328.21.195.332.434.363.715v.047c.008.008.012.015.012.023a.44.44 0 0 1-.047.2.455.455 0 0 1-.105.164c-.11.093-.235.168-.375.222a1.4 1.4 0 0 1-.446.07h-.07a.193.193 0 0 1-.059-.011h-.046Z"/></svg>