<svg xmlns="http://www.w3.org/2000/svg" width="22" height="22" fill="none"><path fill="#8091A7" d="M21.992 20.992a.992.992 0 0 1-.305.727.926.926 0 0 1-.68.281H.993c-.265 0-.5-.094-.703-.281a1.035 1.035 0 0 1-.281-.727c0-.265.094-.492.281-.68a.966.966 0 0 1 .703-.304h20.016c.265 0 .492.101.68.305a.892.892 0 0 1 .304.68ZM6.008 19a.926.926 0 0 0 .68-.281.992.992 0 0 0 .304-.727V16c0-.547-.195-1.016-.586-1.406-.39-.39-.86-.586-1.406-.586H3.008c-.563 0-1.04.195-1.43.586-.39.39-.586.86-.586 1.406v1.992c0 .281.094.524.281.727.204.187.446.281.727.281a.954.954 0 0 0 .703-.281.992.992 0 0 0 .305-.727V16H5v1.992c0 .281.094.524.281.727.203.187.446.281.727.281ZM8 11.008v6.984c0 .281.094.524.281.727.203.187.446.281.727.281a.926.926 0 0 0 .68-.281.992.992 0 0 0 .304-.727v-6.984h2.016v6.984c0 .281.094.524.281.727.203.187.438.281.703.281a.954.954 0 0 0 .703-.281.992.992 0 0 0 .305-.727v-6.984c0-.563-.195-1.04-.586-1.43-.39-.39-.86-.586-1.406-.586H9.992c-.547 0-1.015.195-1.406.586-.39.39-.586.867-.586 1.43ZM15.992 19a.954.954 0 0 0 .703-.281.992.992 0 0 0 .305-.727V4h1.992v13.992c0 .281.094.524.281.727.204.187.446.281.727.281a.954.954 0 0 0 .703-.281.992.992 0 0 0 .305-.727V4c0-.547-.195-1.016-.586-1.406a1.945 1.945 0 0 0-1.43-.586H17c-.547 0-1.016.195-1.406.586-.39.39-.586.86-.586 1.406v13.992c0 .281.094.524.281.727.203.187.438.281.703.281ZM1.18 9.203h.093a.208.208 0 0 1 .094-.023h-.023c.172-.032.328-.063.468-.094.157-.031.305-.063.446-.094A9.487 9.487 0 0 0 4.297 8.5a9.41 9.41 0 0 0 1.805-.938l-.024.024A18.748 18.748 0 0 0 8.07 5.734a18.19 18.19 0 0 0 1.664-2.132l.047-.07.281 2.085a.781.781 0 0 0 .258.469c.14.125.305.187.492.187h.047c.016-.015.032-.023.047-.023a.681.681 0 0 0 .469-.234.718.718 0 0 0 .188-.493v-.117L11 1.446v-.024c0-.016-.008-.031-.023-.047 0-.031-.008-.055-.024-.07 0-.032-.008-.055-.023-.07a.207.207 0 0 0-.024-.094v.023l-.047-.047-.046-.047c0-.015-.016-.03-.047-.047a.273.273 0 0 0-.047-.07h-.024V.93h-.047l-.046-.047a.208.208 0 0 0-.094-.024.271.271 0 0 0-.07-.046H10.155l-3.914.539a.681.681 0 0 0-.469.234.718.718 0 0 0-.187.492c0 .219.07.399.21.54.157.14.337.21.54.21h.117l2.203-.305a17.186 17.186 0 0 1-1.57 2.04 18.62 18.62 0 0 1-1.781 1.734l-.047.023c-.469.313-.977.57-1.524.774a7.83 7.83 0 0 1-1.71.422h-.047c-.157.03-.313.062-.47.093-.155.032-.32.07-.491.118a.762.762 0 0 0-.422.257.686.686 0 0 0-.164.47c0 .202.07.382.21.538.157.14.337.211.54.211Z"/></svg>