<svg xmlns="http://www.w3.org/2000/svg" width="22" height="20" fill="none"><path fill="#8091A7" d="M17 12.992v3h-3v-3h3ZM17 11h-3c-.547 0-1.016.195-1.406.586-.39.39-.586.86-.586 1.406v3c0 .563.195 1.04.586 1.43.39.39.86.586 1.406.586h3c.547 0 1.016-.195 1.406-.586.39-.39.586-.867.586-1.43v-3c0-.547-.195-1.015-.586-1.406-.39-.39-.86-.586-1.406-.586ZM8 2v4.992H3.008V2H8ZM8 .008H3.008c-.563 0-1.04.195-1.43.586-.39.39-.586.86-.586 1.406v4.992c0 .563.196 1.04.586 1.43.39.39.867.586 1.43.586H8c.547 0 1.016-.195 1.406-.586.39-.39.586-.867.586-1.43V2c0-.547-.195-1.016-.586-1.406C9.016.204 8.546.008 8 .008ZM18.992 2v4.992H14V2h4.992Zm0-1.992H14c-.547 0-1.016.195-1.406.586-.39.39-.586.86-.586 1.406v4.992c0 .563.195 1.04.586 1.43.39.39.86.586 1.406.586h4.992c.563 0 1.04-.195 1.43-.586.39-.39.586-.867.586-1.43V2c0-.547-.195-1.016-.586-1.406a1.945 1.945 0 0 0-1.43-.586ZM8 12.992v5.016H3.008v-5.016H8ZM8 11H3.008c-.563 0-1.04.195-1.43.586-.39.39-.586.86-.586 1.406v5.016c0 .547.196 1.015.586 1.406.39.39.867.586 1.43.586H8c.547 0 1.016-.195 1.406-.586.39-.39.586-.86.586-1.406v-5.016c0-.547-.195-1.015-.586-1.406C9.016 11.196 8.546 11 8 11Z"/></svg>