<svg width="8" height="5" viewBox="0 0 8 5" fill="none" xmlns="http://www.w3.org/2000/svg">
<path d="M6.91211 4.21289C6.83008 4.21289 6.7526 4.19922 6.67969 4.17188C6.61589 4.13542 6.55664 4.08984 6.50195 4.03516L4 1.5332L1.49805 4.03516C1.44336 4.08984 1.37956 4.13086 1.30664 4.1582C1.24284 4.18555 1.16992 4.19922 1.08789 4.19922C0.932943 4.19922 0.796224 4.14453 0.677734 4.03516C0.568359 3.91667 0.513672 3.77539 0.513672 3.61133C0.513672 3.53841 0.527344 3.47005 0.554688 3.40625C0.582031 3.33333 0.623047 3.26953 0.677734 3.21484L3.58984 0.302734C3.64453 0.248047 3.70378 0.207031 3.76758 0.179688C3.84049 0.143229 3.91797 0.125 4 0.125C4.08203 0.125 4.15495 0.143229 4.21875 0.179688C4.29167 0.207031 4.35547 0.248047 4.41016 0.302734L7.32227 3.21484C7.37695 3.26953 7.41797 3.33333 7.44531 3.40625C7.48177 3.47005 7.5 3.54297 7.5 3.625C7.5 3.78906 7.44076 3.93034 7.32227 4.04883C7.21289 4.1582 7.07617 4.21289 6.91211 4.21289Z" fill="#526484"/>
</svg>
