<svg xmlns="http://www.w3.org/2000/svg" width="18" height="19" fill="none"><path fill="#8091A7" d="M18 3.781v12.446c0 .765-.273 1.421-.82 1.968-.532.532-1.188.797-1.97.797h-3.538c-.281 0-.524-.094-.727-.281a1.006 1.006 0 0 1-.28-.703c0-.281.093-.516.28-.703a.992.992 0 0 1 .727-.305h3.539c.219 0 .406-.07.562-.21a.767.767 0 0 0 .235-.563V3.78a.693.693 0 0 0-.235-.539.767.767 0 0 0-.562-.234h-3.54c-.28 0-.523-.094-.726-.281a1.034 1.034 0 0 1-.28-.727c0-.281.093-.516.28-.703a.992.992 0 0 1 .727-.305h3.539c.781 0 1.437.274 1.969.82.547.547.82 1.204.82 1.97Zm-5.414 6.61a.415.415 0 0 0 .047-.188.873.873 0 0 0 .023-.21c0-.126-.023-.25-.07-.376a.91.91 0 0 0-.211-.328L7.922 4.86a.91.91 0 0 0-.328-.21.742.742 0 0 0-.375-.094.992.992 0 0 0-.727.304.926.926 0 0 0-.281.68c0 .14.023.274.07.399.063.125.14.234.235.328l2.742 2.742h-8.25a.992.992 0 0 0-.727.305.926.926 0 0 0-.281.68c0 .28.094.523.281.726.203.187.446.281.727.281h8.25l-2.742 2.742a1.25 1.25 0 0 0-.235.328.944.944 0 0 0-.07.375c0 .282.094.524.281.727.203.187.446.281.727.281.14 0 .265-.023.375-.07a1.25 1.25 0 0 0 .328-.235l4.453-4.43a.933.933 0 0 0 .117-.14l.094-.187Z"/></svg>