<svg xmlns="http://www.w3.org/2000/svg" width="18" height="17" fill="none"><path fill="#526484" d="M14.84 2h-1.68v-.84a.743.743 0 0 0-.254-.566.743.743 0 0 0-.566-.254.826.826 0 0 0-.606.254.772.772 0 0 0-.234.566V2h-5v-.84a.743.743 0 0 0-.254-.566A.764.764 0 0 0 5.66.34a.805.805 0 0 0-.586.254.772.772 0 0 0-.234.566V2H3.16c-.69 0-1.282.247-1.777.742A2.393 2.393 0 0 0 .66 4.5v9.16c0 .69.241 1.283.723 1.777a2.458 2.458 0 0 0 1.777.723h11.68c.69 0 1.276-.24 1.758-.723a2.425 2.425 0 0 0 .742-1.777V4.5c0-.69-.248-1.276-.742-1.758A2.361 2.361 0 0 0 14.84 2Zm.82 11.66a.826.826 0 0 1-.254.606.771.771 0 0 1-.566.234H3.16a.838.838 0 0 1-.586-.234.862.862 0 0 1-.234-.606V4.5c0-.234.078-.43.234-.586a.805.805 0 0 1 .586-.254h1.68v.84c0 .234.078.436.234.605.17.157.365.235.586.235.235 0 .43-.078.586-.235A.827.827 0 0 0 6.5 4.5v-.84h5v.84c0 .234.078.436.234.605.17.157.371.235.606.235.221 0 .41-.078.566-.235a.827.827 0 0 0 .254-.605v-.84h1.68c.221 0 .41.085.566.254.17.156.254.352.254.586v9.16Zm-10-5a.838.838 0 0 1-.586-.234.885.885 0 0 1-.176-.918.759.759 0 0 1 .176-.274.937.937 0 0 1 1.192 0l.039.079.058.058a.227.227 0 0 1 .04.059l.038.078c0 .026.007.052.02.078.013.026.02.052.02.078.012.026.019.052.019.078v.098c0 .234-.085.43-.254.586a.772.772 0 0 1-.566.234h-.02Zm3.34 0a.938.938 0 0 1-.332-.058.81.81 0 0 1-.254-.176 1.202 1.202 0 0 1-.195-.254.938.938 0 0 1-.04-.508.764.764 0 0 1 .06-.156.434.434 0 0 1 .058-.137c.039-.052.078-.098.117-.137.078-.065.163-.117.254-.156A.938.938 0 0 1 9 7.02c.117 0 .221.02.313.058.104.04.195.091.273.156.039.04.072.085.098.137.026.04.052.085.078.137a.726.726 0 0 1 .078.332.173.173 0 0 1-.02.078v.098-.02l-.039.078a.173.173 0 0 1-.02.078.173.173 0 0 1-.019.078.128.128 0 0 1-.058.06l-.04.077-.058.059a.76.76 0 0 1-.274.176A.787.787 0 0 1 9 8.66Zm3.34 0a.938.938 0 0 1-.332-.058.758.758 0 0 1-.274-.176.128.128 0 0 0-.058-.059l-.04-.078a.227.227 0 0 1-.038-.059 27.096 27.096 0 0 1-.04-.078.174.174 0 0 0-.019-.078.172.172 0 0 1-.02-.078.174.174 0 0 1-.019-.078V7.82c0-.052.007-.104.02-.156a.77.77 0 0 1 .058-.156h-.02c.027-.052.053-.098.079-.137a3.11 3.11 0 0 0 .097-.137.936.936 0 0 1 .274-.156A.733.733 0 0 1 12.34 7h.078c.026 0 .052.007.078.02.026 0 .052.006.078.02.026.012.052.019.078.019l.079.039.078.039a.127.127 0 0 0 .058.058.227.227 0 0 1 .059.04c.039.038.071.084.097.136.027.04.053.085.079.137l.039.156c.013.052.02.11.02.176v.078a.322.322 0 0 1-.02.098v-.02a.174.174 0 0 1-.02.078.174.174 0 0 1-.02.078l-.039.078a.225.225 0 0 1-.039.06.304.304 0 0 1-.058.077.227.227 0 0 0-.04.059.304.304 0 0 0-.077.058l-.04.04-.078.039-.078.039-.078.039h-.078a.173.173 0 0 1-.078.02h-.078ZM5.66 12h-.078a.218.218 0 0 0-.098-.02h.02a.172.172 0 0 1-.078-.02.174.174 0 0 0-.078-.019 27.096 27.096 0 0 1-.157-.078.778.778 0 0 0-.117-.097 1.041 1.041 0 0 1-.195-.274.938.938 0 0 1-.059-.332c0-.234.078-.43.235-.586a.826.826 0 0 1 .605-.254c.117 0 .228.026.332.078a.76.76 0 0 1 .274.176l.039.078.058.059a.23.23 0 0 1 .04.059l.038.078c0 .026.007.052.02.078.013.026.02.052.02.078.012.026.019.052.019.078v.098a.805.805 0 0 1-.254.586.771.771 0 0 1-.566.234h-.02ZM9 12a.937.937 0 0 1-.332-.059 1.76 1.76 0 0 1-.254-.175 1.042 1.042 0 0 1-.195-.274.938.938 0 0 1-.059-.332c0-.052.007-.104.02-.156a.76.76 0 0 1 .058-.156.435.435 0 0 1 .059-.137c.039-.052.078-.098.117-.137.078-.065.163-.117.254-.156A.732.732 0 0 1 9 10.34c.117 0 .221.026.313.078a.935.935 0 0 1 .273.156c.039.04.072.085.098.137.026.039.052.085.078.137a.76.76 0 0 1 .058.156c.013.052.02.104.02.156a.217.217 0 0 1-.02.098v.078l-.039.078a.174.174 0 0 1-.02.078.173.173 0 0 1-.019.078l-.058.059-.04.078-.058.059c-.078.065-.17.123-.274.175A.786.786 0 0 1 9 12Zm3.34 0a.937.937 0 0 1-.332-.059 1.409 1.409 0 0 1-.274-.175 1.409 1.409 0 0 1-.175-.274.937.937 0 0 1-.059-.332v-.078a.218.218 0 0 0 .02-.098v.02c0-.026.006-.052.02-.078l.038-.078h-.02l.04-.079a.23.23 0 0 1 .039-.058.23.23 0 0 1 .039-.059.305.305 0 0 0 .058-.078.76.76 0 0 1 .274-.176.94.94 0 0 1 .332-.058h.078c.026 0 .059.006.098.02h-.02c.026 0 .052.006.078.019.026 0 .052.006.078.02l.079.039.078.039a.228.228 0 0 1 .039.058l.078.04a.76.76 0 0 1 .176.273.886.886 0 0 1 .058.312.726.726 0 0 1-.02.176l-.038.156-.079.156a.772.772 0 0 1-.097.118l-.078.039a.223.223 0 0 0-.04.058l-.078.04-.078.038a.174.174 0 0 0-.078.02.172.172 0 0 1-.078.02.173.173 0 0 0-.078.019h-.078Z"/></svg>