<svg width="7" height="10" viewBox="0 0 7 10" fill="none" xmlns="http://www.w3.org/2000/svg">
<path d="M1.59824 9.96074C1.39681 9.96074 1.21908 9.88965 1.06504 9.74746C0.922851 9.59342 0.851758 9.41569 0.851758 9.21426C0.851758 9.10762 0.869531 9.0069 0.905078 8.91211C0.940625 8.81732 0.993945 8.7403 1.06504 8.68105L4.31758 5.41074L1.06504 2.1582C1.00579 2.08711 0.952474 2.01009 0.905078 1.92715C0.869531 1.83236 0.851758 1.73756 0.851758 1.64277C0.851758 1.42949 0.922851 1.25176 1.06504 1.10957C1.21908 0.955533 1.40273 0.878515 1.61602 0.878515C1.71081 0.878515 1.8056 0.896289 1.90039 0.931835C1.99518 0.967382 2.07812 1.0207 2.14922 1.0918L5.93496 4.87754C6.00605 4.94863 6.05938 5.03158 6.09492 5.12637C6.13047 5.20931 6.14824 5.3041 6.14824 5.41074C6.14824 5.51738 6.13047 5.6181 6.09492 5.71289C6.05938 5.80768 6.00605 5.8847 5.93496 5.94395L2.13145 9.74746C2.0722 9.81855 1.99518 9.87187 1.90039 9.90742C1.8056 9.94297 1.70488 9.96074 1.59824 9.96074Z" fill="#526484"/>
</svg>
