<svg xmlns="http://www.w3.org/2000/svg" width="22" height="20" fill="none"><path fill="#8091A7" d="M11 .008A9.882 9.882 0 0 0 7.11.78a10.254 10.254 0 0 0-3.188 2.156 10 10 0 0 0-2.133 3.165 9.63 9.63 0 0 0-.797 3.89c0 1.39.266 2.688.797 3.89a9.928 9.928 0 0 0 2.133 3.188 9.928 9.928 0 0 0 3.187 2.133A9.63 9.63 0 0 0 11 20a9.63 9.63 0 0 0 3.89-.797 9.927 9.927 0 0 0 3.188-2.133 9.927 9.927 0 0 0 2.133-3.187c.531-1.203.797-2.5.797-3.89a9.63 9.63 0 0 0-.797-3.891 10.333 10.333 0 0 0-2.156-3.165A9.97 9.97 0 0 0 14.89.781 9.881 9.881 0 0 0 11 .008Zm7.922 9h-6.914V2.07a8.09 8.09 0 0 1 2.531.774c.797.39 1.5.89 2.11 1.5.609.61 1.109 1.304 1.5 2.086.406.797.663 1.64.773 2.53v.048Zm-15.914.984c0-1.015.18-1.976.539-2.883.36-.89.844-1.687 1.453-2.39A7.65 7.65 0 0 1 7.227 2.96a7.55 7.55 0 0 1 2.742-.89h.023v15.867a8.443 8.443 0 0 1-2.765-.891 8.345 8.345 0 0 1-2.204-1.758 8.09 8.09 0 0 1-1.476-2.414 7.748 7.748 0 0 1-.54-2.883Zm9 7.945V11h6.914a7.579 7.579 0 0 1-.774 2.555 7.969 7.969 0 0 1-1.5 2.086 8.427 8.427 0 0 1-2.085 1.523 8.091 8.091 0 0 1-2.532.773h-.023Z"/></svg>