<svg width="16" height="16" viewBox="0 0 16 16" fill="none" xmlns="http://www.w3.org/2000/svg">
<path d="M12.5898 15.1602H3.41016C2.61589 15.1602 1.93229 14.8802 1.35938 14.3203C0.786458 13.7474 0.5 13.0573 0.5 12.25V3.08984C0.5 2.28255 0.786458 1.59245 1.35938 1.01953C1.93229 0.446615 2.61589 0.160156 3.41016 0.160156H12.5898C13.3841 0.160156 14.0677 0.446615 14.6406 1.01953C15.2135 1.59245 15.5 2.28255 15.5 3.08984V12.25C15.5 13.0573 15.2135 13.7474 14.6406 14.3203C14.0677 14.8802 13.3841 15.1602 12.5898 15.1602ZM3.41016 1.83984C3.07161 1.83984 2.77865 1.96354 2.53125 2.21094C2.28385 2.44531 2.16016 2.73828 2.16016 3.08984V12.25C2.16016 12.5885 2.28385 12.8815 2.53125 13.1289C2.77865 13.3763 3.07161 13.5 3.41016 13.5H12.5898C12.9284 13.5 13.2214 13.3763 13.4688 13.1289C13.7161 12.8815 13.8398 12.5885 13.8398 12.25V3.08984C13.8398 2.73828 13.7161 2.44531 13.4688 2.21094C13.2214 1.96354 12.9284 1.83984 12.5898 1.83984H3.41016Z" fill="#DBDFEA"/>
</svg>
