<svg xmlns="http://www.w3.org/2000/svg" width="14" height="13" fill="none"><path fill="#8091A7" d="M7 1.912c-.73 0-1.408.141-2.037.424A5.433 5.433 0 0 0 3.28 3.457a5.267 5.267 0 0 0-1.12 1.668 5.116 5.116 0 0 0-.411 2.037c0 .73.137 1.413.41 2.05a5.268 5.268 0 0 0 1.121 1.669 5.435 5.435 0 0 0 1.682 1.121c.629.273 1.308.41 2.037.41.73 0 1.408-.137 2.037-.41a5.27 5.27 0 0 0 1.668-1.121 5.157 5.157 0 0 0 1.545-3.719 5.156 5.156 0 0 0-1.545-3.705 5.268 5.268 0 0 0-1.668-1.121A4.913 4.913 0 0 0 7 1.912Zm0 9.338a4.003 4.003 0 0 1-1.586-.315 4.351 4.351 0 0 1-1.312-.875 4.196 4.196 0 0 1-.862-1.298 3.956 3.956 0 0 1-.328-1.6c0-.565.11-1.094.328-1.586.21-.492.497-.92.862-1.285.373-.374.81-.67 1.312-.889A4.005 4.005 0 0 1 7 3.088c.565 0 1.094.105 1.586.314.501.22.934.515 1.299.889.373.365.665.793.875 1.285.219.492.328 1.021.328 1.586 0 .565-.11 1.098-.328 1.6a3.994 3.994 0 0 1-2.174 2.16A3.861 3.861 0 0 1 7 11.25Zm1.969-2.912a.567.567 0 0 1-.219.246.535.535 0 0 1-.314.096h-.123a.535.535 0 0 1-.11-.041l-1.435-.63a.703.703 0 0 1-.26-.204.6.6 0 0 1-.096-.328V4.975a.54.54 0 0 1 .164-.397A.579.579 0 0 1 7 4.4c.164 0 .3.06.41.178a.52.52 0 0 1 .178.397v2.119l1.08.478c.11.046.196.119.26.219a.535.535 0 0 1 .095.314.634.634 0 0 1-.013.124.535.535 0 0 1-.041.109Zm-7.11-4.922a2.245 2.245 0 0 1-.15.082.603.603 0 0 1-.602-.137.603.603 0 0 1-.164-.423c0-.1.023-.192.069-.274a.644.644 0 0 1 .177-.205h.014l2.283-1.6a.484.484 0 0 1 .15-.082.65.65 0 0 1 .178-.027c.165 0 .301.06.41.178.12.11.178.246.178.41a.607.607 0 0 1-.246.478l-2.297 1.6Zm11.088-.15a.553.553 0 0 1-.479.26.559.559 0 0 1-.177-.028l-.164-.082h.014l-2.297-1.6a.607.607 0 0 1-.246-.479c0-.163.054-.3.164-.41a.579.579 0 0 1 .752-.068l2.283 1.6a.553.553 0 0 1 .26.479.56.56 0 0 1-.028.177.691.691 0 0 1-.082.164v-.013Z"/></svg>