<svg xmlns="http://www.w3.org/2000/svg" width="16" height="20" fill="none"><path fill="#8091A7" d="m10.86 18.758-.75-2.766-1.712.445.75 2.766-1.382.375-.727-2.765-3.422.914-.14-1.758.89-.235c.156-.03.297-.086.422-.164a.946.946 0 0 0 .305-.304.916.916 0 0 0 .07-.188c.016-.078.024-.156.024-.234a.443.443 0 0 0-.024-.14.442.442 0 0 0-.023-.142h.023L3.242 7.391a1.233 1.233 0 0 0-.187-.47 1.416 1.416 0 0 0-.328-.35 2.755 2.755 0 0 0-.329-.118 1.275 1.275 0 0 0-.351-.047.885.885 0 0 0-.281.047c-.094.016-.188.04-.282.07l.024-.023-.82.234-.399-1.453 3.422-.914-.75-2.765 1.312-.352.75 2.766 1.711-.47L6.008.782 7.368.43l.75 2.789.163-.024c.219-.062.446-.11.68-.14.234-.032.476-.047.726-.047.329 0 .649.031.961.094.313.046.618.125.915.234l-.047-.023a2.64 2.64 0 0 1 1.054.843c.282.36.453.774.516 1.242v.024c.016.078.023.164.023.258.016.078.024.172.024.28 0 .157-.016.313-.047.47-.016.14-.047.28-.094.422v-.024a3.824 3.824 0 0 1-.328.54 6.095 6.095 0 0 1-.398.491l-.352.352.492-.024h.117c.25 0 .493.024.727.07.25.048.484.11.703.188h-.023c.39.172.726.43 1.008.774.28.328.468.703.562 1.125v.023c.078.172.133.367.164.586.047.203.07.414.07.633 0 .375-.062.734-.187 1.078-.11.328-.274.633-.492.914v-.023c-.313.36-.664.672-1.055.937-.375.266-.79.477-1.242.633l-.024.023a4.727 4.727 0 0 1-.257.094l-.235.094h-.047a4.697 4.697 0 0 1-.258.094 7.332 7.332 0 0 1-.304.093l-.164.07.75 2.79-1.36.375Zm-2.79-8.414a9.569 9.569 0 0 0-.773.234l-.305.094-.187.047 1.101 4.101.211-.047.656-.187a32.7 32.7 0 0 0 1.266-.375 6.208 6.208 0 0 0 1.031-.445 5.17 5.17 0 0 0 .914-.61h-.023a1.55 1.55 0 0 0 .61-1.242c0-.11-.008-.21-.024-.305a1.25 1.25 0 0 0-.07-.257 1.537 1.537 0 0 0-.493-.82 1.727 1.727 0 0 0-.89-.446 4.957 4.957 0 0 0-.961-.094c-.203 0-.406.016-.61.047a3.516 3.516 0 0 0-.562.094h.023c-.14.031-.289.07-.445.117l-.469.094ZM6.781 5.188c-.281.078-.539.156-.773.234l-.352.117-.164.07 1.055 3.704.164-.047.234-.047c.157-.031.344-.078.563-.14.11-.017.219-.04.328-.071.11-.047.219-.086.328-.117.344-.11.656-.243.938-.399.296-.172.57-.367.82-.586.156-.156.281-.336.375-.539a1.71 1.71 0 0 0 .14-.68c0-.093-.007-.18-.023-.257a1.25 1.25 0 0 0-.07-.258c-.11-.36-.32-.649-.633-.867a1.617 1.617 0 0 0-1.031-.352H8.609a6.47 6.47 0 0 0-.96.07c-.313.047-.618.11-.915.188l.047-.024Z"/></svg>