<svg xmlns="http://www.w3.org/2000/svg" width="18" height="20" fill="none"><path fill="#8091A7" d="m9.586 15.195 3.61-2.086c.187-.109.327-.25.421-.421.11-.188.164-.391.164-.61V2.422l1.406.797v9.469A1.475 1.475 0 0 1 14.415 14l-4.64 2.695c-.11.063-.235.117-.376.164a1.64 1.64 0 0 1-.398.047c-.14 0-.281-.015-.422-.047a2.422 2.422 0 0 1-.351-.164L3.586 14a1.433 1.433 0 0 1-.563-.54 1.475 1.475 0 0 1-.21-.773V7.32c0-.28.07-.539.21-.773.141-.234.329-.422.563-.563l4.64-2.671c.11-.063.227-.11.352-.141.14-.047.281-.07.422-.07.11 0 .219.015.328.046.11.016.211.047.305.094v1.594l-.047-.024a1.172 1.172 0 0 0-.281-.117A.958.958 0 0 0 9 4.648c-.11 0-.219.016-.328.047-.094.032-.18.07-.258.117l-3.61 2.086a1.053 1.053 0 0 0-.445.422c-.093.172-.14.367-.14.586v4.172c0 .219.047.422.14.61.11.171.258.312.446.421l3.61 2.086c.077.047.163.086.257.117.11.032.219.047.328.047.11 0 .21-.015.305-.046.11-.032.203-.07.28-.118ZM16.57 4.04v9.258c0 .344-.086.656-.258.937a2.02 2.02 0 0 1-.68.68l-5.694 3.281c-.141.078-.29.14-.446.188-.156.047-.32.07-.492.07s-.336-.023-.492-.07a2.241 2.241 0 0 1-.445-.188l-5.696-3.28a2.02 2.02 0 0 1-.68-.68 1.763 1.763 0 0 1-.257-.938V6.71c0-.344.086-.656.258-.938.171-.296.398-.523.68-.68l5.694-3.28c.141-.094.29-.157.446-.188.156-.047.32-.07.492-.07s.336.023.492.07c.156.047.305.11.445.188l1.079.609v8.46a.452.452 0 0 1-.07.235.54.54 0 0 1-.188.188l-1.5.867a.592.592 0 0 1-.14.07H8.86a1.15 1.15 0 0 1-.118-.07l-1.5-.867a.539.539 0 0 1-.187-.188.452.452 0 0 1-.07-.234V9.125c0-.094.023-.18.07-.258a.38.38 0 0 1 .187-.164l1.5-.89a.909.909 0 0 0 .117-.047A.442.442 0 0 1 9 7.742c.047 0 .086.008.117.024l.14.046.376.211V6.43l-.211-.117a.836.836 0 0 0-.211-.07A.465.465 0 0 0 9 6.194a.627.627 0 0 0-.234.047.916.916 0 0 0-.188.07L6.023 7.79a.946.946 0 0 0-.304.305.78.78 0 0 0-.117.422v2.953c0 .156.039.304.117.445.078.125.18.227.304.305l2.555 1.476a.912.912 0 0 0 .188.07c.078.016.156.024.234.024a.872.872 0 0 0 .21-.023.515.515 0 0 0 .212-.094v.023l2.555-1.476a.946.946 0 0 0 .304-.305.903.903 0 0 0 .117-.445V1.625L10.102.289a1.884 1.884 0 0 0-.516-.21A2.407 2.407 0 0 0 9 .007c-.203 0-.398.023-.586.07a1.824 1.824 0 0 0-.539.234L7.898.29l-6.75 3.89A2.358 2.358 0 0 0 .352 5a2.05 2.05 0 0 0-.305 1.102v7.78c0 .407.101.782.305 1.126.203.344.468.61.796.797l6.75 3.89c.157.094.329.172.516.235.188.047.383.07.586.07.203 0 .398-.023.586-.07.187-.063.367-.14.539-.235h-.023l6.75-3.89c.328-.188.593-.453.796-.797a2.17 2.17 0 0 0 .305-1.125V4.836l-1.383-.797Z"/></svg>