<svg width="14" height="13" viewBox="0 0 14 13" fill="none" xmlns="http://www.w3.org/2000/svg">
<path d="M13.4746 4.98672C13.434 4.875 13.3629 4.77852 13.2613 4.69727C13.1699 4.61602 13.0633 4.56523 12.9414 4.54492L9.23945 4.01172L7.57891 0.644922C7.51797 0.543359 7.43672 0.462109 7.33516 0.401172C7.23359 0.340234 7.12188 0.309765 7 0.309765C6.87812 0.309765 6.76641 0.340234 6.66484 0.401172C6.56328 0.462109 6.48203 0.543359 6.42109 0.644922L4.76055 4.01172L1.05859 4.54492C0.896094 4.56523 0.758984 4.63633 0.647265 4.7582C0.545703 4.88008 0.494922 5.02227 0.494922 5.18477C0.494922 5.27617 0.510156 5.3625 0.540625 5.44375C0.58125 5.525 0.632031 5.59609 0.692969 5.65703L3.37422 8.26211L2.74961 11.9488C2.73945 11.9691 2.73437 11.9895 2.73437 12.0098C2.73437 12.0301 2.73437 12.0504 2.73437 12.0707C2.73437 12.2434 2.79531 12.3957 2.91719 12.5277C3.04922 12.6496 3.20664 12.7105 3.38945 12.7105C3.44023 12.7105 3.49102 12.7055 3.5418 12.6953C3.59258 12.6852 3.64336 12.6648 3.69414 12.6344L7 10.8977L10.3059 12.6344C10.3566 12.6648 10.4074 12.6852 10.4582 12.6953C10.509 12.7055 10.5598 12.7105 10.6105 12.7105C10.7934 12.7105 10.9457 12.6496 11.0676 12.5277C11.1996 12.3957 11.2656 12.2434 11.2656 12.0707C11.2656 12.0504 11.2656 12.0301 11.2656 12.0098C11.2656 11.9895 11.2605 11.9691 11.2504 11.9488L10.6258 8.26211L13.307 5.65703C13.368 5.59609 13.4137 5.525 13.4441 5.44375C13.4848 5.3625 13.5051 5.27617 13.5051 5.18477C13.5051 5.1543 13.5 5.12383 13.4898 5.09336C13.4898 5.05273 13.4797 5.01719 13.4594 4.98672H13.4746Z" fill="#F4BD0E"/>
</svg>
