<svg xmlns="http://www.w3.org/2000/svg" width="10" height="10" fill="none"><path fill="#8091A7" d="M8.504 5.5v2.566c0 .399-.14.739-.422 1.02a1.41 1.41 0 0 1-1.02.41H1.93c-.39 0-.727-.137-1.008-.41A1.389 1.389 0 0 1 .5 8.066V2.934c0-.399.14-.735.422-1.008a1.375 1.375 0 0 1 1.008-.422h2.566c.14 0 .258.05.352.152a.446.446 0 0 1 .152.34c0 .14-.05.262-.152.363a.477.477 0 0 1-.352.141H1.93a.417.417 0 0 0-.305.129.417.417 0 0 0-.129.305v5.132c0 .118.043.22.129.305a.417.417 0 0 0 .305.129h5.133a.393.393 0 0 0 .304-.129.417.417 0 0 0 .13-.305V5.5c0-.14.046-.258.14-.352A.496.496 0 0 1 8 4.996c.14 0 .258.05.352.152.101.094.152.211.152.352Zm.96-4.688A.474.474 0 0 0 9.278.59a.436.436 0 0 0-.28-.094H6.5c-.14 0-.262.05-.363.152a.477.477 0 0 0-.14.352c0 .14.046.262.14.363.101.094.222.14.363.14h1.29l-4.138 4.15a.408.408 0 0 0-.129.152.563.563 0 0 0-.035.199c0 .14.047.262.14.363.102.094.224.14.364.14.07 0 .137-.01.2-.034a.626.626 0 0 0 .163-.118l4.149-4.148v1.29c0 .14.047.26.14.362.102.094.22.141.352.141a.496.496 0 0 0 .504-.504V1a.385.385 0 0 0-.012-.094 2.276 2.276 0 0 0-.023-.105v.011Z"/></svg>