<svg xmlns="http://www.w3.org/2000/svg" width="16" height="16" fill="none"><path fill="#6576FF" d="M12.59 15.66H3.41c-.794 0-1.478-.28-2.05-.84a2.822 2.822 0 0 1-.86-2.07V3.59c0-.807.286-1.498.86-2.07C1.931.947 2.615.66 3.41.66h9.18c.794 0 1.478.287 2.05.86.573.572.86 1.263.86 2.07v9.16c0 .807-.287 1.497-.86 2.07-.572.56-1.256.84-2.05.84ZM3.41 2.34c-.338 0-.631.124-.879.37a1.16 1.16 0 0 0-.37.88v9.16c0 .338.123.632.37.879.248.247.54.371.88.371h9.179c.338 0 .631-.124.879-.371.247-.247.37-.54.37-.879V3.59a1.16 1.16 0 0 0-.37-.88 1.201 1.201 0 0 0-.88-.37H3.41Zm8.75 2.5a.764.764 0 0 0-.254-.586A.743.743 0 0 0 11.34 4H4.66a.805.805 0 0 0-.586.254.795.795 0 0 0-.234.586c0 .221.078.417.234.586.17.156.365.234.586.234h6.68c.221 0 .41-.078.566-.234a.805.805 0 0 0 .254-.586Zm0 6.66a.764.764 0 0 0-.254-.586.743.743 0 0 0-.566-.254H4.66a.805.805 0 0 0-.586.254.795.795 0 0 0-.234.586c0 .234.078.436.234.605.17.157.365.235.586.235h6.68c.221 0 .41-.078.566-.235a.827.827 0 0 0 .254-.605ZM8 8.16a.743.743 0 0 0-.254-.566.764.764 0 0 0-.586-.254h-2.5a.805.805 0 0 0-.586.254.772.772 0 0 0-.234.566c0 .235.078.436.234.606.17.156.365.234.586.234h2.5c.235 0 .43-.078.586-.234A.827.827 0 0 0 8 8.16Zm4.16 0a.743.743 0 0 0-.254-.566.743.743 0 0 0-.566-.254h-.84a.764.764 0 0 0-.586.254.772.772 0 0 0-.234.566c0 .235.078.436.234.606.17.156.371.234.606.234h.82c.221 0 .41-.078.566-.234a.827.827 0 0 0 .254-.606Z"/></svg>