<svg xmlns="http://www.w3.org/2000/svg" width="22" height="20" fill="none"><path fill="#8091A7" d="M18.992 6.008H17v-3c0-.828-.297-1.531-.89-2.11A2.834 2.834 0 0 0 14 .008H8c-.828 0-1.54.297-2.133.89A2.871 2.871 0 0 0 5 3.008v3H3.008c-.563 0-1.04.195-1.43.586-.39.39-.586.86-.586 1.406v10.008c0 .547.196 1.015.586 1.406.39.39.867.586 1.43.586h15.984c.563 0 1.04-.195 1.43-.586.39-.39.586-.86.586-1.406V8c0-.547-.195-1.016-.586-1.406a1.945 1.945 0 0 0-1.43-.586ZM3.008 8H5v10.008H3.008V8Zm3.984-4.992c0-.281.094-.516.281-.703A.992.992 0 0 1 8 2h6c.281 0 .516.102.703.305a.917.917 0 0 1 .305.703v15H6.992v-15Zm12 15H17V8h1.992v10.008ZM9.922 4.625c.015.047.031.11.047.188A.77.77 0 0 1 9.992 5a.992.992 0 0 1-.305.727.926.926 0 0 1-.68.28c-.28 0-.523-.093-.726-.28A1.034 1.034 0 0 1 8 5c0-.281.094-.516.281-.703a.992.992 0 0 1 .727-.305c.14 0 .265.031.375.094a.91.91 0 0 1 .328.21.625.625 0 0 1 .117.165l.094.14v.024Zm3.797-.328c.078.094.14.203.187.328.063.11.094.234.094.375a.992.992 0 0 1-.305.727.954.954 0 0 1-.703.28c-.265 0-.5-.093-.703-.28A1.034 1.034 0 0 1 12.008 5c0-.281.094-.516.281-.703a.966.966 0 0 1 .703-.305c.14 0 .274.031.399.094a.912.912 0 0 1 .328.21ZM9.922 8.609a.416.416 0 0 1 .047.188.871.871 0 0 1 0 .398.416.416 0 0 1-.047.188l-.094.187a.93.93 0 0 1-.117.14.626.626 0 0 1-.164.118 1.533 1.533 0 0 1-.164.094.917.917 0 0 1-.188.07h-.21c-.141 0-.274-.023-.4-.07a.973.973 0 0 1-.304-.211.931.931 0 0 0-.117-.14.916.916 0 0 1-.07-.188H8.07c-.015-.063-.03-.125-.047-.188a.871.871 0 0 1 .07-.586H8.07c.032-.062.063-.117.094-.164.047-.062.086-.117.117-.164a1.124 1.124 0 0 1 .727-.258 1.124 1.124 0 0 1 .703.258.625.625 0 0 1 .117.164c.031.047.063.102.094.164Zm4.008 0c.015.063.03.125.047.188a.873.873 0 0 1 0 .398.918.918 0 0 1-.07.188h.023c-.032.062-.07.125-.117.187l-.094.14a1.252 1.252 0 0 1-.328.235c-.125.047-.258.07-.399.07-.265 0-.5-.093-.703-.28a1.035 1.035 0 0 1-.281-.727V8.82a.838.838 0 0 1 .07-.21c.031-.063.063-.118.094-.165a.624.624 0 0 1 .117-.164c.094-.078.203-.14.328-.187.125-.047.25-.07.375-.07a1.125 1.125 0 0 1 .727.257c.031.047.062.102.094.164a.347.347 0 0 1 .093.164h.024Zm-4.22 3.68a.91.91 0 0 1 .212.328c.047.11.07.235.07.375v.024a.77.77 0 0 1-.023.187.416.416 0 0 1-.047.188l-.094.187a.931.931 0 0 1-.117.14 1.693 1.693 0 0 1-.328.212.944.944 0 0 1-.375.07c-.281 0-.524-.094-.727-.281A1.006 1.006 0 0 1 8 13.016v-.024c0-.281.094-.515.281-.703a.992.992 0 0 1 .727-.305c.14 0 .265.032.375.094a.91.91 0 0 1 .328.211Zm4.009 0c.078.094.14.203.187.328.063.11.094.235.094.375v.024a.772.772 0 0 1-.023.187.918.918 0 0 1-.07.188h.023c-.032.062-.07.125-.117.187l-.094.14a1.695 1.695 0 0 1-.328.212c-.125.047-.258.07-.399.07-.265 0-.5-.094-.703-.281a1.006 1.006 0 0 1-.281-.703v-.024c0-.281.094-.515.281-.703a.965.965 0 0 1 .703-.305c.14 0 .274.032.399.094a.912.912 0 0 1 .328.211Z"/></svg>