<svg xmlns="http://www.w3.org/2000/svg" width="18" height="19" fill="none"><path fill="#8091A7" d="M14.508 18.992H3.492c-.953 0-1.773-.336-2.46-1.008A3.386 3.386 0 0 1 0 15.5V4.508c0-.969.344-1.797 1.031-2.485C1.72 1.336 2.54.993 3.492.993h11.016c.953 0 1.773.343 2.46 1.03A3.387 3.387 0 0 1 18 4.508V15.5c0 .969-.344 1.797-1.031 2.484-.688.672-1.508 1.008-2.461 1.008ZM3.492 3.008c-.406 0-.758.148-1.054.445a1.393 1.393 0 0 0-.446 1.055V15.5c0 .406.149.758.446 1.055.296.297.648.445 1.054.445h11.016c.406 0 .758-.148 1.055-.445.296-.297.445-.649.445-1.055V4.508c0-.422-.149-.774-.445-1.055a1.442 1.442 0 0 0-1.055-.445H3.492Zm1.711 7.969a.207.207 0 0 0 .094-.024.208.208 0 0 1 .094-.023l.093-.047a.27.27 0 0 0 .07-.047l.071-.07.094-.047.093-.14a.528.528 0 0 0 .094-.188h.024c.015-.063.03-.125.047-.188A.87.87 0 0 0 6 9.993a.742.742 0 0 0-.094-.376 1.124 1.124 0 0 0-.187-.328 1.124 1.124 0 0 0-.328-.187.879.879 0 0 0-.399-.094.832.832 0 0 0-.375.094c-.125.046-.234.109-.328.187a.367.367 0 0 1-.07.094.273.273 0 0 0-.047.07.273.273 0 0 0-.047.07l-.047.094-.047.094v.094a.208.208 0 0 0-.023.093v.094a.87.87 0 0 0 .023.211l.047.188.094.187c.031.047.07.094.117.14.094.079.195.15.305.212.125.047.258.07.398.07h.117a.208.208 0 0 1 .094-.023Zm4.172-.047a.912.912 0 0 0 .54-.54.871.871 0 0 0 .094-.398.208.208 0 0 0-.025-.094v-.117.024l-.046-.094a.208.208 0 0 0-.024-.094.208.208 0 0 0-.023-.094.153.153 0 0 0-.07-.07.273.273 0 0 0-.048-.07.367.367 0 0 0-.07-.094.625.625 0 0 0-.164-.117l-.14-.094h-.024a.333.333 0 0 0-.188-.047A.77.77 0 0 0 9 9.008c-.281 0-.523.094-.727.281a.954.954 0 0 0-.28.703.871.871 0 0 0 .093.399c.016.062.039.125.07.187l.14.14.071.071a.273.273 0 0 1 .07.047h.024a.27.27 0 0 0 .07.047l.094.047a.18.18 0 0 1 .07.023.207.207 0 0 0 .094.024c.031 0 .063.007.094.023H9a.772.772 0 0 0 .188-.023.523.523 0 0 0 .187-.07v.023Zm3.82.047a.207.207 0 0 0 .094-.024.208.208 0 0 1 .094-.023l.094-.047a.272.272 0 0 0 .07-.047.273.273 0 0 0 .07-.047.365.365 0 0 1 .094-.07.927.927 0 0 0 .117-.14l.094-.188a.417.417 0 0 0 .047-.188.772.772 0 0 0 .023-.187v-.118a.386.386 0 0 0-.023-.117v.024a.208.208 0 0 0-.024-.094.208.208 0 0 0-.023-.094 40.957 40.957 0 0 1-.047-.094.27.27 0 0 0-.047-.07.153.153 0 0 0-.07-.07 40.957 40.957 0 0 0-.047-.094.91.91 0 0 0-.328-.21 1.062 1.062 0 0 0-.375-.071c-.14 0-.274.023-.399.07a.912.912 0 0 0-.328.211.365.365 0 0 1-.07.094.273.273 0 0 0-.047.07.27.27 0 0 0-.047.07l-.047.094a.208.208 0 0 1-.023.094.207.207 0 0 0-.024.094.208.208 0 0 0-.023.093v.094a.873.873 0 0 0 .094.399h-.024a.913.913 0 0 0 .54.539c.062.015.124.03.187.047a.873.873 0 0 0 .21.023h.095a.208.208 0 0 1 .093-.023ZM5.72 6.71c.078-.094.14-.195.187-.305A.879.879 0 0 0 6 6.008a.879.879 0 0 0-.094-.399 1.124 1.124 0 0 0-.187-.328 1.124 1.124 0 0 0-.727-.258 1.124 1.124 0 0 0-.703.258.911.911 0 0 0-.21.328c-.048.125-.071.258-.071.399 0 .281.094.515.281.703a.954.954 0 0 0 .703.281c.14 0 .274-.023.399-.07a.911.911 0 0 0 .328-.211Zm3.656.21c.063-.03.117-.062.164-.093a.625.625 0 0 0 .164-.117.973.973 0 0 0 .211-.305.879.879 0 0 0 .094-.398.879.879 0 0 0-.094-.399.91.91 0 0 0-.21-.328 1.532 1.532 0 0 0-.165-.093.369.369 0 0 0-.14-.094l-.024-.024a1.622 1.622 0 0 0-.188-.047.88.88 0 0 0-.586.07c-.109.048-.21.11-.304.188a1.251 1.251 0 0 0-.235.328c-.046.125-.07.258-.07.399 0 .281.094.515.281.703.204.187.446.281.727.281a.77.77 0 0 0 .188-.023c.078-.016.14-.032.187-.047Zm4.008 0c.062-.03.117-.062.164-.093a.624.624 0 0 0 .164-.117.275.275 0 0 1 .047-.07.365.365 0 0 0 .07-.094.27.27 0 0 0 .047-.07l.047-.094a.208.208 0 0 0 .023-.094.208.208 0 0 0 .024-.094.208.208 0 0 0 .023-.093V5.89a.208.208 0 0 0-.023-.094.208.208 0 0 0-.024-.094.208.208 0 0 0-.023-.094 40.963 40.963 0 0 1-.047-.093.27.27 0 0 0-.047-.07.153.153 0 0 0-.07-.071 40.957 40.957 0 0 0-.047-.094 1.524 1.524 0 0 0-.164-.093.348.348 0 0 0-.164-.094V5.07c-.063-.015-.125-.03-.188-.047a.87.87 0 0 0-.586.07V5.07c-.062.032-.125.07-.187.117l-.14.094-.048.094-.07.07a.27.27 0 0 0-.047.07l-.047.094a.208.208 0 0 1-.023.094.207.207 0 0 0-.024.094.208.208 0 0 1-.023.094V6.102c.016.03.023.07.023.117v-.024c0 .032.008.063.024.094a.208.208 0 0 1 .023.094l.047.094a.27.27 0 0 0 .047.07l.047.094c.031.015.055.039.07.07a.931.931 0 0 0 .14.117l.188.094a.917.917 0 0 0 .188.07h.398a.917.917 0 0 0 .188-.07Zm-7.664 7.782a1.23 1.23 0 0 0 .187-.305A.879.879 0 0 0 6 14a.208.208 0 0 0-.023-.094v-.117a.208.208 0 0 0-.024-.094.18.18 0 0 1-.023-.07l-.047-.094-.047-.094v.024a.367.367 0 0 1-.07-.094.271.271 0 0 0-.047-.07.91.91 0 0 0-.328-.211 1.127 1.127 0 0 0-.399-.07.767.767 0 0 0-.187.023.417.417 0 0 0-.188.047.529.529 0 0 0-.187.094.927.927 0 0 0-.14.117c-.017.015-.04.039-.071.07a.273.273 0 0 1-.047.07v.024a.275.275 0 0 0-.047.07l-.047.094a.273.273 0 0 0-.047.07v.094a.26.26 0 0 0-.023.117V14c0 .14.023.273.07.398.047.11.117.211.211.305a.927.927 0 0 0 .14.117l.188.094a.917.917 0 0 0 .188.07.772.772 0 0 0 .187.024c.14 0 .274-.024.399-.07a1.25 1.25 0 0 0 .328-.235Zm3.656.211a.524.524 0 0 0 .164-.07 1.53 1.53 0 0 0 .164-.14.972.972 0 0 0 .211-.306.879.879 0 0 0 .094-.398.209.209 0 0 0-.024-.094v-.117l-.046-.094c0-.03-.008-.054-.024-.07a.208.208 0 0 0-.023-.094.369.369 0 0 0-.07-.094v.024l-.048-.094a.153.153 0 0 0-.07-.07.624.624 0 0 0-.164-.117l-.14-.094h-.024a.334.334 0 0 0-.188-.047.767.767 0 0 0-.187-.023c-.14 0-.273.023-.398.07a.973.973 0 0 0-.305.21.153.153 0 0 0-.07.071l-.047.094a.154.154 0 0 0-.07.07.208.208 0 0 0-.024.094.273.273 0 0 0-.047.07.208.208 0 0 1-.023.094c0 .031-.008.07-.024.117V14c0 .14.024.273.07.398.063.11.141.211.235.305s.195.172.305.235c.125.046.257.07.398.07a.772.772 0 0 0 .188-.024.523.523 0 0 0 .187-.07Zm4.008 0a.91.91 0 0 0 .539-.539 1.087 1.087 0 0 0 .07-.375.944.944 0 0 0-.07-.375.91.91 0 0 0-.211-.328.622.622 0 0 0-.164-.117.348.348 0 0 0-.164-.094.417.417 0 0 0-.188-.047.767.767 0 0 0-.187-.023c-.14 0-.274.023-.399.07a.912.912 0 0 0-.328.21 1.691 1.691 0 0 0-.21.329A.944.944 0 0 0 12 14c0 .063.008.133.023.21.016.063.04.118.07.165h-.023l.094.188a.932.932 0 0 1 .117.14c.094.094.203.172.328.235.125.046.258.07.399.07a.772.772 0 0 0 .187-.024.917.917 0 0 0 .188-.07Z"/></svg>