<svg xmlns="http://www.w3.org/2000/svg" width="22" height="20" fill="none"><path fill="#8091A7" d="M17.492.008H4.508c-.969 0-1.797.344-2.485 1.031C1.336 1.711.993 2.531.993 3.5v13.008c0 .953.343 1.773 1.03 2.46A3.387 3.387 0 0 0 4.508 20h12.984c.969 0 1.797-.344 2.485-1.031.687-.688 1.03-1.508 1.03-2.461V3.5c0-.969-.343-1.79-1.03-2.46A3.386 3.386 0 0 0 17.492.007Zm-14.484 16.5V3.5a1.482 1.482 0 0 1 1.5-1.5h12.984c.422 0 .774.148 1.055.445.297.297.445.649.445 1.055v7.57l-2.648-2.765a.912.912 0 0 0-.328-.211.879.879 0 0 0-.399-.094.879.879 0 0 0-.398.094.714.714 0 0 0-.305.21l-9.328 9.704H4.508a1.482 1.482 0 0 1-1.5-1.5Zm14.484 1.5h-9.14l7.265-7.57 3.375 3.515v2.555c0 .406-.148.758-.445 1.055a1.393 1.393 0 0 1-1.055.445ZM8 9.992c.828 0 1.531-.289 2.11-.867.593-.594.89-1.305.89-2.133 0-.828-.297-1.531-.89-2.11A2.834 2.834 0 0 0 8 3.993c-.828 0-1.54.297-2.133.89A2.871 2.871 0 0 0 5 6.993c0 .828.29 1.54.867 2.133A2.95 2.95 0 0 0 8 9.992Zm0-4.5c.422 0 .773.149 1.055.446.297.296.445.648.445 1.054 0 .422-.148.781-.445 1.078A1.431 1.431 0 0 1 8 8.492a1.51 1.51 0 0 1-1.078-.422A1.51 1.51 0 0 1 6.5 6.992c0-.406.148-.758.445-1.054A1.442 1.442 0 0 1 8 5.492Z"/></svg>