<svg xmlns="http://www.w3.org/2000/svg" width="22" height="22" fill="none"><path fill="#8091A7" d="M15.992 13.758h-6a.782.782 0 0 1-.539-.211.782.782 0 0 1-.21-.54.73.73 0 0 1 .21-.538.782.782 0 0 1 .54-.211h6a.73.73 0 0 1 .538.21c.14.141.211.321.211.54 0 .203-.07.383-.21.539a.73.73 0 0 1-.54.21Zm.75 2.25a.73.73 0 0 0-.21-.54.73.73 0 0 0-.54-.21h-6a.782.782 0 0 0-.539.21.73.73 0 0 0-.21.54c0 .203.07.383.21.539.156.14.336.21.54.21h6a.73.73 0 0 0 .538-.21.782.782 0 0 0 .211-.54Zm-4.992-6a.693.693 0 0 0-.234-.54.701.701 0 0 0-.516-.21H9.969a.782.782 0 0 0-.54.21.73.73 0 0 0-.21.54c0 .203.07.383.21.539.157.14.337.21.54.21H11c.203 0 .375-.07.516-.21a.741.741 0 0 0 .234-.54Zm9.258 8.203V7.406a.742.742 0 0 0-.094-.375 1.125 1.125 0 0 0-.187-.328l-5.25-5.39a.912.912 0 0 0-.329-.211.879.879 0 0 0-.398-.094H7.742c-.75 0-1.398.273-1.945.82C5.266 2.36 5 3.008 5 3.773V18.211c0 .766.266 1.422.797 1.969a2.786 2.786 0 0 0 1.945.82h10.5a2.73 2.73 0 0 0 1.945-.82c.547-.547.82-1.203.82-1.97v-.023.024ZM12.992 3v4.992c0 .281.094.524.281.727.204.187.446.281.727.281h4.992v9.234c0 .203-.07.383-.21.54a.816.816 0 0 1-.54.234h-10.5a.888.888 0 0 1-.539-.235.782.782 0 0 1-.21-.539v-.046.023V3.773c0-.203.07-.382.21-.539A.741.741 0 0 1 7.743 3h5.25Zm2.016.703 3.21 3.305h-3.21V3.703ZM3.898 20.977a.916.916 0 0 0 .07-.188c.016-.078.024-.156.024-.234a.917.917 0 0 0-.164-.54 1.078 1.078 0 0 0-.375-.374H3.43l-.094-.047a.37.37 0 0 1-.07-.094 1.125 1.125 0 0 1-.258-.727V3.211c0-.125.015-.25.047-.375.047-.125.11-.234.187-.328l.047-.047a.367.367 0 0 1 .094-.07c.14-.094.25-.211.328-.352.078-.156.117-.32.117-.492a.917.917 0 0 0-.305-.703.892.892 0 0 0-.68-.305c-.109 0-.21.016-.304.047s-.18.07-.258.117c-.11.078-.219.164-.328.258-.094.078-.18.172-.258.281a3.08 3.08 0 0 0-.515.914c-.125.328-.188.68-.188 1.055V18.773c0 .407.07.782.211 1.125.14.344.328.657.563.938.109.125.226.234.351.328.14.11.281.203.422.281h.023a.834.834 0 0 0 .211.07c.079.016.157.024.235.024a.88.88 0 0 0 .515-.164.843.843 0 0 0 .375-.398Z"/></svg>