<svg xmlns="http://www.w3.org/2000/svg" width="22" height="20" fill="none"><path fill="#8091A7" d="M18.148 20H9.852a2.818 2.818 0 0 1-2.04-.82 2.79 2.79 0 0 1-.82-2.016v-8.32c0-.781.274-1.446.82-1.992a2.778 2.778 0 0 1 2.04-.844h8.296c.797 0 1.47.281 2.016.844.563.546.844 1.21.844 1.992v8.32c0 .781-.281 1.453-.844 2.016-.547.547-1.219.82-2.016.82ZM9.852 8a.833.833 0 0 0-.61.258.795.795 0 0 0-.234.586v8.32c0 .234.078.438.234.61a.876.876 0 0 0 .61.234h8.296c.235 0 .43-.078.586-.235a.833.833 0 0 0 .258-.609v-8.32a.76.76 0 0 0-.258-.586.76.76 0 0 0-.586-.258H9.852ZM5 12.992a.892.892 0 0 0-.305-.68.917.917 0 0 0-.703-.304h-.14a.876.876 0 0 1-.61-.235.876.876 0 0 1-.234-.609v-8.32c0-.235.078-.43.234-.586A.833.833 0 0 1 3.852 2h8.296a.76.76 0 0 1 .586.258.76.76 0 0 1 .258.586v.164c0 .265.094.5.281.703.204.187.446.281.727.281a.954.954 0 0 0 .703-.281.966.966 0 0 0 .305-.703v-.164c0-.781-.281-1.446-.844-1.992-.547-.563-1.219-.844-2.016-.844H3.852c-.797 0-1.477.281-2.04.844a2.712 2.712 0 0 0-.82 1.992v8.32c0 .781.274 1.453.82 2.016.563.547 1.243.82 2.04.82h.14a.954.954 0 0 0 .703-.281.992.992 0 0 0 .305-.727Z"/></svg>