<svg xmlns="http://www.w3.org/2000/svg" width="6" height="11" fill="none"><path fill="#8091A7" d="M.91 10.66a.838.838 0 0 1-.586-.234.838.838 0 0 1-.234-.586c0-.117.02-.228.058-.332a.595.595 0 0 1 .176-.254L3.898 5.66.324 2.086a1.758 1.758 0 0 1-.176-.254.885.885 0 0 1-.058-.312c0-.235.078-.43.234-.586A.827.827 0 0 1 .93.68c.104 0 .208.02.312.058a.76.76 0 0 1 .274.176l4.16 4.16c.078.078.136.17.176.274a.938.938 0 0 1 0 .645.595.595 0 0 1-.176.253l-4.18 4.18a.595.595 0 0 1-.254.176.94.94 0 0 1-.332.058Z"/></svg>