<svg xmlns="http://www.w3.org/2000/svg" width="17" height="4" fill="none"><path fill="#364A63" d="M8.9 3.813c-.521 0-.972-.184-1.35-.551a1.837 1.837 0 0 1-.552-1.351c0-.522.184-.966.551-1.333C7.93.21 8.38.027 8.9.027s.966.183 1.333.55c.38.368.569.812.569 1.334 0 .521-.19.971-.569 1.35a1.816 1.816 0 0 1-1.333.551Zm6.06 0c-.52 0-.965-.184-1.332-.551a1.837 1.837 0 0 1-.551-1.351c0-.522.183-.966.55-1.333a1.816 1.816 0 0 1 1.334-.551c.533 0 .983.183 1.35.55.368.368.552.812.552 1.334 0 .521-.19.971-.57 1.35a1.816 1.816 0 0 1-1.332.551Zm-12.12 0c-.534 0-.984-.184-1.352-.551a1.837 1.837 0 0 1-.55-1.351c0-.522.183-.966.55-1.333A1.837 1.837 0 0 1 2.84.027c.522 0 .966.183 1.333.55.368.368.551.812.551 1.334 0 .521-.183.971-.55 1.35a1.816 1.816 0 0 1-1.334.551Z"/></svg>