<svg xmlns="http://www.w3.org/2000/svg" width="22" height="24" fill="none"><path fill="#526484" d="M18.842 14.813c-.043-.03-.394-.466-1.053-1.311-.659-.845-.988-2.428-.988-4.748a5.14 5.14 0 0 0-.494-2.149 5.386 5.386 0 0 0-1.225-1.74 5.522 5.522 0 0 0-3.932-1.611h-.085c-.03 0-.05.007-.065.021a.19.19 0 0 0-.086-.021h-.064c-.774 0-1.497.143-2.17.43a5.782 5.782 0 0 0-1.784 1.181 5.559 5.559 0 0 0-1.203 1.74A5.094 5.094 0 0 0 5.2 8.732v.022c0 2.32-.33 3.903-.988 4.748-.645.845-.988 1.282-1.031 1.31-.13.086-.237.201-.323.344a.87.87 0 0 0-.107.43c0 .258.086.48.258.666a.949.949 0 0 0 .666.258h3.695c.1.816.416 1.668.945 2.556.53.888 1.426 1.332 2.686 1.332s2.156-.444 2.685-1.332c.53-.888.846-1.74.946-2.556h3.695a.924.924 0 0 0 .559-.172.97.97 0 0 0 .322-.473v-.021a.239.239 0 0 0 .021-.108.632.632 0 0 0 .022-.15c0-.158-.043-.3-.129-.43a.953.953 0 0 0-.28-.344ZM11 18.572c-.616 0-1.053-.244-1.31-.731-.244-.487-.394-.931-.452-1.332h3.524c-.058.4-.215.845-.473 1.332-.243.487-.673.73-1.289.73Zm-5.35-3.91c.43-.789.767-1.64 1.01-2.558.258-.93.387-1.897.387-2.9 0-.072-.007-.15-.022-.236V8.71v.043c.043-1.031.43-1.898 1.16-2.6a3.75 3.75 0 0 1 2.665-1.052H11.15c1.032 0 1.912.35 2.643 1.052a3.63 3.63 0 0 1 1.182 2.578v.022c0 .057-.008.129-.022.215v.236c0 1.003.122 1.97.365 2.9.258.931.616 1.805 1.075 2.622l-.043-.065H5.65Z"/><circle cx="16" cy="7" r="3" fill="#09C2DE" stroke="#fff" stroke-width="2"/></svg>