<svg xmlns="http://www.w3.org/2000/svg" width="20" height="20" fill="none"><path fill="#8091A7" d="M8.547 4.297a.91.91 0 0 0-.328-.211.879.879 0 0 0-.399-.094H3.11a2.387 2.387 0 0 0-1.688.727 2.263 2.263 0 0 0-.68 1.664V17.633c0 .64.227 1.195.68 1.664A2.43 2.43 0 0 0 3.109 20h8.086a2.347 2.347 0 0 0 1.664-.703c.47-.469.704-1.024.704-1.664V9.899a.743.743 0 0 0-.094-.376 1.123 1.123 0 0 0-.188-.328L8.547 4.297Zm1.992 4.945H8.5V7.156l2.04 2.086Zm.656 8.766H3.11a.44.44 0 0 1-.257-.117.403.403 0 0 1-.094-.258V6.383c0-.11.031-.196.094-.258a.312.312 0 0 1 .257-.117h3.399v4.242c0 .281.094.523.281.727.203.187.445.28.727.28h4.03v6.376c0 .094-.03.18-.093.258a.44.44 0 0 1-.258.117Zm7.782-12.656L14.242.312a.714.714 0 0 0-.305-.21.93.93 0 0 0-.421-.094H8.805c-.39 0-.75.086-1.078.258a2.167 2.167 0 0 0-.797.703h-.024l-.14.281a.958.958 0 0 0-.047.305c0 .28.093.523.281.726.203.188.445.281.727.281.171 0 .328-.039.468-.117.14-.078.258-.18.352-.304a.265.265 0 0 1 .094-.094A.289.289 0 0 1 8.805 2h3.398v4.406c0 .266.094.5.281.703.204.188.446.282.727.282h4.031V14a.403.403 0 0 1-.351.398h-.868c-.265 0-.5.102-.703.305a.954.954 0 0 0-.28.703c0 .266.093.5.28.703.203.188.438.282.703.282h.868c.656 0 1.21-.235 1.664-.703A2.302 2.302 0 0 0 19.258 14V6.031a.697.697 0 0 0-.094-.351 1.125 1.125 0 0 0-.187-.328Zm-4.782-2.157 2.086 2.203h-2.086V3.195Z"/></svg>