<svg width="14" height="15" viewBox="0 0 14 15" fill="none" xmlns="http://www.w3.org/2000/svg">
<path d="M12.9941 6.75586H7.75586V1.5C7.75586 1.28906 7.67969 1.11328 7.52734 0.972656C7.38672 0.820313 7.21094 0.744141 7 0.744141C6.78906 0.744141 6.60742 0.820313 6.45508 0.972656C6.31445 1.11328 6.24414 1.28906 6.24414 1.5V6.75586H1.00586C0.794922 6.75586 0.613281 6.83203 0.460938 6.98438C0.320312 7.125 0.25 7.29492 0.25 7.49414C0.25 7.70508 0.320312 7.88672 0.460938 8.03906C0.613281 8.17969 0.794922 8.25 1.00586 8.25H6.24414V13.5059C6.24414 13.7051 6.31445 13.8809 6.45508 14.0332C6.60742 14.1738 6.78906 14.2441 7 14.2441C7.21094 14.2441 7.38672 14.1738 7.52734 14.0332C7.67969 13.8809 7.75586 13.7051 7.75586 13.5059V8.25H12.9941C13.2051 8.25 13.3809 8.17969 13.5215 8.03906C13.6738 7.88672 13.75 7.70508 13.75 7.49414C13.75 7.29492 13.6738 7.125 13.5215 6.98438C13.3809 6.83203 13.2051 6.75586 12.9941 6.75586Z" fill="white"/>
</svg>
