<svg xmlns="http://www.w3.org/2000/svg" width="22" height="20" fill="none"><path fill="#8091A7" d="M20.89 3.406c0-.562-.18-1.054-.538-1.476-.375-.422-.86-.774-1.454-1.055A7.62 7.62 0 0 0 16.86.219a12.817 12.817 0 0 0-4.64 0c-.75.14-1.43.36-2.04.656-.593.281-1.07.633-1.429 1.055-.36.437-.54.937-.54 1.5l.071 3.797h-.469a4.71 4.71 0 0 0-.468-.024c-.766 0-1.524.063-2.274.188a9.435 9.435 0 0 0-2.062.562c-.594.25-1.078.57-1.453.961a1.93 1.93 0 0 0-.563 1.383v.023l.117 6.563c0 .547.188 1.015.563 1.406.375.39.86.711 1.453.961.61.25 1.29.438 2.04.563.765.125 1.53.187 2.296.187 1.187 0 2.336-.148 3.445-.445 1.125-.313 1.938-.79 2.438-1.43.203.031.414.055.633.07h.68c.78 0 1.554-.07 2.32-.21a8.222 8.222 0 0 0 2.039-.633c.593-.297 1.07-.657 1.43-1.079a2.24 2.24 0 0 0 .562-1.5L20.89 3.406ZM3.032 12.172c.61.265 1.266.469 1.969.61.703.14 1.43.21 2.18.21H7.414h-.023.234a10.962 10.962 0 0 0 4.172-.82l-.07.023.023 1.852a7.716 7.716 0 0 1-1.781.797 7.143 7.143 0 0 1-2.016.281h-.305a1.71 1.71 0 0 0-.28-.023h.023a1.58 1.58 0 0 0-.258.023h-.281a7.143 7.143 0 0 1-2.016-.281 7.473 7.473 0 0 1-1.805-.797h.024l-.024-1.875Zm15.89-4.711a7.152 7.152 0 0 1-1.78.82 6.629 6.629 0 0 1-2.016.305h-.281a1.578 1.578 0 0 0-.258-.024h.023-.047c-.374 0-.75-.015-1.124-.046-.376-.047-.743-.11-1.102-.188h.07a6.013 6.013 0 0 0-.96-.445c-.329-.14-.68-.25-1.055-.328l-.047-.024c-.016-.015-.031-.023-.047-.023 0-.016-.008-.031-.024-.047l-.046-2.18c.609.25 1.257.453 1.945.61.703.14 1.43.21 2.18.21H14.773c.75 0 1.477-.07 2.18-.21a10.866 10.866 0 0 0 2.016-.657l-.07.024.023 2.203Zm-5.226 2.836a.443.443 0 0 0-.023-.14.44.44 0 0 0-.024-.141h.024l.445.046h.703c.75 0 1.477-.07 2.18-.21a10.862 10.862 0 0 0 2.016-.657l-.07.024.023 2.273c-.11.094-.227.188-.352.281a1.4 1.4 0 0 1-.375.188l-.023.023a9.628 9.628 0 0 1-1.477.47 7.774 7.774 0 0 1-1.617.163h-.844a8.094 8.094 0 0 1-.61-.07h.048l-.024-2.25ZM14.54 2c1.422 0 2.5.195 3.234.586.75.375 1.125.656 1.125.844v.093a6.966 6.966 0 0 1-1.804.797 7.14 7.14 0 0 1-2.016.282h-.539.024c-.079 0-.165.007-.258.023H14a6.857 6.857 0 0 1-2.04-.305 7.71 7.71 0 0 1-1.78-.82h.023v-.094c0-.187.367-.469 1.102-.844.734-.374 1.812-.562 3.234-.562ZM7.344 9.195c1.36 0 2.406.149 3.14.446.735.296 1.133.523 1.196.68v.187a7.738 7.738 0 0 1-1.758.75 7.745 7.745 0 0 1-2.016.258h-.281a1.58 1.58 0 0 1-.258-.024h.024c-1.22 0-2.204-.125-2.954-.375-.734-.25-1.21-.492-1.43-.726v-.07c.079-.157.485-.383 1.22-.68.734-.297 1.773-.446 3.117-.446Zm.117 8.813c-1.375 0-2.43-.149-3.164-.445-.734-.313-1.133-.54-1.195-.68v-1.078c.593.25 1.234.445 1.921.586.704.14 1.422.21 2.157.21h.234-.023.234c.75 0 1.477-.07 2.18-.21a11.337 11.337 0 0 0 2.062-.657l-.07.047v1.078c-.063.157-.461.391-1.195.703-.735.297-1.782.446-3.141.446Zm7.195-1.805h-.445l-.422-.047-.047-2.086.54.047H15.147c.672 0 1.32-.07 1.946-.21.64-.141 1.25-.337 1.828-.587l-.07.024a.277.277 0 0 0 .07-.047c.015-.016.039-.024.07-.024v1.524c0 .172-.367.453-1.101.844-.735.375-1.813.562-3.235.562Z"/></svg>