<svg xmlns="http://www.w3.org/2000/svg" width="22" height="20" fill="none"><path fill="#8091A7" d="M8.773 7.531h.563c.578 0 1.125-.101 1.64-.304.532-.22 1-.508 1.407-.868h-.024c.282-.28.5-.601.657-.96.156-.36.234-.75.234-1.172a.52.52 0 0 0-.023-.165v-.164.024a4.13 4.13 0 0 0-1.383-2.742A4.182 4.182 0 0 0 9.008.008c-1.11.031-2.07.43-2.883 1.195a4.242 4.242 0 0 0-1.36 2.742V4.227c0 .421.079.82.235 1.195.156.36.367.672.633.937.39.36.844.649 1.36.868a4.435 4.435 0 0 0 1.64.304h.14ZM8.984 2h.024c.578.031 1.078.25 1.5.656.422.39.664.867.726 1.43V4.227a.88.88 0 0 1-.093.398c-.047.125-.11.234-.188.328a2.931 2.931 0 0 1-.773.445c-.266.094-.555.141-.867.141h-.141a.442.442 0 0 1-.14-.023h.023-.118.024a.442.442 0 0 1-.14.023h-.118c-.312 0-.61-.047-.89-.14a2.578 2.578 0 0 1-.75-.446 1.442 1.442 0 0 1-.235-.305 1.125 1.125 0 0 1-.07-.398v-.094a2.34 2.34 0 0 1 .726-1.476 2.23 2.23 0 0 1 1.5-.68h.024-.024Zm12.024 13.266v2.742c0 .265-.102.5-.305.703a.954.954 0 0 1-.703.281c-.281 0-.523-.094-.727-.281a1.006 1.006 0 0 1-.28-.703v-2.742c0-1.125-.157-2.086-.47-2.883-.296-.813-.625-1.313-.984-1.5a1.066 1.066 0 0 1-.398-.352A1.027 1.027 0 0 1 17 9.992c0-.265.094-.492.281-.68a.992.992 0 0 1 .727-.304c.078 0 .156.008.234.023a.738.738 0 0 1 .235.094c.765.406 1.375 1.172 1.828 2.297.468 1.11.703 2.39.703 3.844Zm-4.594-9.891v-.094c0-.422-.133-.797-.398-1.125a1.856 1.856 0 0 0-.985-.68h-.023a1.053 1.053 0 0 1-.54-.351.995.995 0 0 1-.21-.61c0-.28.094-.515.281-.703a.966.966 0 0 1 .703-.304c.047 0 .094.008.14.023h.118c.844.219 1.54.672 2.086 1.36.547.687.82 1.476.82 2.367 0 .11-.008.219-.023.328l-.047.328v-.023c0 .03-.008.054-.023.07v.047c-.22.469-.516.89-.891 1.265-.36.36-.766.641-1.219.844h-.047l-.187.14-.188.095a1.293 1.293 0 0 1-.258.117.756.756 0 0 1-.28.047.942.942 0 0 1-.493-.141 1.257 1.257 0 0 1-.352-.352 1.653 1.653 0 0 1-.117-.234 1.71 1.71 0 0 1-.023-.281c0-.188.039-.352.117-.492a.948.948 0 0 1 .352-.352v-.023a.917.917 0 0 0 .21-.118 1.64 1.64 0 0 1 .235-.117c.25-.11.476-.25.68-.422.218-.171.398-.367.539-.586l.023-.023ZM17 16.344v2.648a.992.992 0 0 1-.305.727.954.954 0 0 1-.703.281c-.265 0-.5-.094-.703-.281a1.035 1.035 0 0 1-.281-.727v-2.648c0-1.157-.25-2.164-.75-3.024-.5-.875-1.086-1.312-1.758-1.312H5.492c-.656 0-1.234.437-1.734 1.312-.5.86-.75 1.867-.75 3.024v2.648a.992.992 0 0 1-.305.727A.954.954 0 0 1 2 20c-.281 0-.523-.094-.727-.281a1.035 1.035 0 0 1-.28-.727v-2.648c0-.89.116-1.727.35-2.508.235-.766.555-1.43.962-1.992a4.713 4.713 0 0 1 1.43-1.36 3.358 3.358 0 0 1 1.757-.492H12.5c.625 0 1.21.164 1.758.492a4.713 4.713 0 0 1 1.43 1.36c.406.562.726 1.226.96 1.992.235.781.352 1.617.352 2.508Z"/></svg>