<svg width="14" height="14" viewBox="0 0 14 14" fill="none" xmlns="http://www.w3.org/2000/svg">
<path d="M7 0.671875C6.08333 0.671875 5.21875 0.84375 4.40625 1.1875C3.59375 1.54167 2.88542 2.02083 2.28125 2.625C1.67708 3.22917 1.20312 3.93229 0.859375 4.73438C0.505208 5.54688 0.328125 6.41146 0.328125 7.32812C0.328125 8.25521 0.505208 9.11979 0.859375 9.92188C1.20312 10.7344 1.67708 11.4427 2.28125 12.0469C2.88542 12.651 3.59375 13.125 4.40625 13.4688C5.21875 13.8229 6.08333 14 7 14C7.91667 14 8.78125 13.8229 9.59375 13.4688C10.4062 13.125 11.1146 12.651 11.7188 12.0469C12.3229 11.4427 12.7969 10.7344 13.1406 9.92188C13.4948 9.11979 13.6719 8.25521 13.6719 7.32812C13.6719 6.41146 13.4948 5.54688 13.1406 4.73438C12.7865 3.93229 12.3073 3.22917 11.7031 2.625C11.1094 2.02083 10.4062 1.54167 9.59375 1.1875C8.78125 0.84375 7.91667 0.671875 7 0.671875ZM7.35938 10.3594C7.30729 10.401 7.25 10.4323 7.1875 10.4531C7.13542 10.474 7.07812 10.4844 7.01562 10.4844C6.88021 10.4844 6.76042 10.4375 6.65625 10.3438C6.5625 10.2396 6.51562 10.1198 6.51562 9.98438C6.51562 9.92188 6.52604 9.86458 6.54688 9.8125C6.56771 9.75 6.59896 9.69271 6.64062 9.64062C6.67188 9.61979 6.69792 9.60417 6.71875 9.59375C6.75 9.57292 6.77604 9.55729 6.79688 9.54688H6.8125C6.83333 9.52604 6.85938 9.51562 6.89062 9.51562C6.93229 9.50521 6.96875 9.5 7 9.5C7.13542 9.5 7.25 9.55208 7.34375 9.65625C7.44792 9.75 7.5 9.86458 7.5 10C7.5 10.0729 7.48438 10.1406 7.45312 10.2031C7.43229 10.2552 7.40104 10.3073 7.35938 10.3594ZM7.45312 7.60938V7.92188C7.45312 8.06771 7.40104 8.1875 7.29688 8.28125C7.20312 8.375 7.08854 8.42188 6.95312 8.42188C6.81771 8.42188 6.69792 8.375 6.59375 8.28125C6.5 8.1875 6.45312 8.06771 6.45312 7.92188V7.26562C6.45312 7.16146 6.48438 7.06771 6.54688 6.98438C6.60938 6.89062 6.69271 6.82812 6.79688 6.79688C6.96354 6.74479 7.21354 6.61458 7.54688 6.40625C7.88021 6.19792 8.04688 5.95312 8.04688 5.67188C8.04688 5.36979 7.9375 5.10938 7.71875 4.89062C7.51042 4.67188 7.25521 4.5625 6.95312 4.5625C6.71354 4.5625 6.5 4.63542 6.3125 4.78125C6.125 4.91667 5.99479 5.08854 5.92188 5.29688V5.3125C5.88021 5.40625 5.81771 5.48438 5.73438 5.54688C5.65104 5.60938 5.55729 5.64062 5.45312 5.64062C5.30729 5.64062 5.1875 5.59375 5.09375 5.5C5 5.39583 4.95312 5.27604 4.95312 5.14062C4.95312 5.10938 4.95312 5.08333 4.95312 5.0625C4.96354 5.03125 4.96875 5 4.96875 4.96875C5.125 4.5625 5.38021 4.22917 5.73438 3.96875C6.08854 3.70833 6.49479 3.57812 6.95312 3.57812C7.53646 3.57812 8.03125 3.78125 8.4375 4.1875C8.84375 4.59375 9.04688 5.08854 9.04688 5.67188C9.04688 6.20312 8.84896 6.625 8.45312 6.9375C8.06771 7.25 7.73438 7.47396 7.45312 7.60938Z" fill="#DBDFEA"/>
</svg>
