<svg xmlns="http://www.w3.org/2000/svg" width="15" height="15" fill="none"><path fill="#6576FF" d="M7.45.922c-.968 0-1.881.182-2.74.545a7.22 7.22 0 0 0-2.244 1.518A7.041 7.041 0 0 0 .964 5.213a6.781 6.781 0 0 0-.561 2.74c0 .98.187 1.892.561 2.74a6.991 6.991 0 0 0 1.502 2.244 6.992 6.992 0 0 0 2.244 1.502A6.781 6.781 0 0 0 7.45 15a6.78 6.78 0 0 0 2.74-.561 6.991 6.991 0 0 0 2.244-1.502 6.992 6.992 0 0 0 1.502-2.244c.374-.848.561-1.76.561-2.74 0-.968-.187-1.882-.561-2.74a7.277 7.277 0 0 0-1.518-2.228 7.02 7.02 0 0 0-2.228-1.518A6.958 6.958 0 0 0 7.45.922Zm5.578 6.338h-2.393a10.377 10.377 0 0 0-.528-2.509 9.74 9.74 0 0 0-1.09-2.228l.034.033a5.803 5.803 0 0 1 1.469.693c.462.297.863.65 1.205 1.056.352.408.638.859.858 1.354.23.495.38 1.018.445 1.568v.033Zm-7.36 1.402h3.564a9.039 9.039 0 0 1-.594 2.46 8.8 8.8 0 0 1-1.204 2.096l.016-.017a8.798 8.798 0 0 1-1.782-4.505v-.034Zm0-1.402c.088-.87.286-1.684.594-2.443.308-.77.71-1.474 1.205-2.112l-.017.016c.484.627.88 1.326 1.188 2.096.308.76.506 1.557.594 2.393v.05H5.668Zm.181-4.704c-.429.671-.781 1.403-1.056 2.195-.275.781-.451 1.601-.528 2.46v.049H1.872c.066-.561.214-1.09.445-1.585.22-.506.5-.962.842-1.37A5.81 5.81 0 0 1 4.364 3.25a5.16 5.16 0 0 1 1.452-.676l.033-.017ZM1.872 8.662h2.393A10.203 10.203 0 0 0 5.882 13.4l-.033-.05a5.405 5.405 0 0 1-1.469-.676 6.295 6.295 0 0 1-1.221-1.056 5.7 5.7 0 0 1-.842-1.354 5.129 5.129 0 0 1-.445-1.567v-.034ZM9.05 13.35a10.108 10.108 0 0 0 1.584-4.654v-.034h2.393a5.14 5.14 0 0 1-.445 1.585c-.22.495-.506.946-.858 1.353-.342.407-.738.76-1.189 1.056-.44.297-.924.529-1.452.694H9.05Z"/></svg>