<svg xmlns="http://www.w3.org/2000/svg" width="12" height="13" fill="none"><path fill="#fff" d="M9.382.005H2.618c-.538 0-1 .193-1.386.579a1.866 1.866 0 0 0-.564 1.371v9.095c0 .538.188 1 .564 1.386.386.376.848.564 1.386.564h6.764c.538 0 .995-.188 1.371-.564a1.89 1.89 0 0 0 .579-1.386V1.955c0-.538-.193-.995-.579-1.371A1.842 1.842 0 0 0 9.382.005Zm.655 11.045c0 .183-.066.34-.198.472a.62.62 0 0 1-.457.183H2.618a1.21 1.21 0 0 1-.183-.046.84.84 0 0 1-.167-.076l1.66-1.737 1.036 1.082a.45.45 0 0 0 .152.122c.061.02.127.03.198.03.061 0 .117-.01.168-.03.061-.02.112-.05.152-.091l2.438-2.072-.107.731v.06c0 .123.04.23.122.32a.508.508 0 0 0 .305.168h.06c.123 0 .23-.04.32-.122a.507.507 0 0 0 .168-.304l.26-1.95v-.061a.467.467 0 0 0-.123-.32.5.5 0 0 0-.29-.168h-.014l-1.95-.259h-.077a.508.508 0 0 0-.35.138.475.475 0 0 0-.137.35c0 .122.04.228.122.32a.578.578 0 0 0 .32.167l.822.107-2.178 1.859-1.066-1.128a.382.382 0 0 0-.153-.091.437.437 0 0 0-.198-.046.437.437 0 0 0-.198.046.382.382 0 0 0-.152.091l-1.615 1.691v-8.53a.62.62 0 0 1 .183-.458.645.645 0 0 1 .472-.198h6.764c.183 0 .335.066.457.198a.596.596 0 0 1 .198.457v9.095Zm-1.432-7.8c0 .183-.066.34-.198.472a.62.62 0 0 1-.457.183h-3.9a.672.672 0 0 1-.472-.183.672.672 0 0 1-.183-.472.62.62 0 0 1 .183-.457.645.645 0 0 1 .472-.198h3.9c.183 0 .335.066.457.198a.596.596 0 0 1 .198.457ZM6 5.855a.628.628 0 0 1-.198.457.62.62 0 0 1-.457.183H4.05a.672.672 0 0 1-.472-.183.654.654 0 0 1-.183-.457.62.62 0 0 1 .183-.457.645.645 0 0 1 .472-.198h1.295c.183 0 .335.066.457.198A.596.596 0 0 1 6 5.855Z"/></svg>