<svg width="14" height="14" viewBox="0 0 14 14" fill="none" xmlns="http://www.w3.org/2000/svg">
<path d="M13.307 12.8879L10.9152 10.4961C11.3113 9.99844 11.6211 9.43984 11.8445 8.82031C12.0781 8.19062 12.1949 7.53047 12.1949 6.83984C12.1949 6.02734 12.0426 5.26562 11.7379 4.55469C11.4332 3.84375 11.0117 3.22422 10.4734 2.69609C9.94531 2.15781 9.32578 1.73633 8.61484 1.43164C7.90391 1.12695 7.14219 0.974609 6.32969 0.974609C5.52734 0.974609 4.7707 1.12695 4.05977 1.43164C3.33867 1.73633 2.71406 2.15781 2.18594 2.69609C1.65781 3.22422 1.24141 3.84375 0.936719 4.55469C0.621875 5.26562 0.464453 6.02734 0.464453 6.83984C0.464453 7.64219 0.621875 8.40391 0.936719 9.125C1.24141 9.83594 1.65781 10.4555 2.18594 10.9836C2.71406 11.5117 3.33867 11.9281 4.05977 12.2328C4.7707 12.5477 5.52734 12.7051 6.32969 12.7051C7.03047 12.7051 7.69063 12.5934 8.31016 12.3699C8.93984 12.1363 9.50352 11.8164 10.0012 11.4102L12.393 13.802C12.4539 13.8629 12.5199 13.9086 12.591 13.9391C12.6723 13.9695 12.7535 13.9848 12.8348 13.9848C13.0176 13.9848 13.1699 13.9238 13.2918 13.802C13.4238 13.6699 13.4898 13.5176 13.4898 13.3449C13.4898 13.2535 13.4746 13.1723 13.4441 13.1012C13.4137 13.0199 13.368 12.9488 13.307 12.8879ZM1.80508 6.85508C1.80508 6.84492 1.80508 6.83984 1.80508 6.83984C1.80508 6.22031 1.92187 5.63125 2.15547 5.07266C2.39922 4.52422 2.72422 4.04687 3.13047 3.64062C3.54687 3.22422 4.0293 2.89414 4.57773 2.65039C5.12617 2.4168 5.71523 2.3 6.34492 2.3C6.97461 2.3 7.56875 2.4168 8.12734 2.65039C8.67578 2.89414 9.15313 3.22422 9.55938 3.64062C9.97578 4.04687 10.3059 4.52422 10.5496 5.07266C10.7832 5.63125 10.9 6.22031 10.9 6.83984C10.9 7.46953 10.7781 8.05859 10.5344 8.60703C10.3008 9.15547 9.98086 9.63789 9.57461 10.0543C9.57461 10.0543 9.56953 10.0543 9.55938 10.0543C9.55938 10.0543 9.55938 10.0594 9.55938 10.0695C9.55938 10.0695 9.55938 10.0746 9.55938 10.0848C9.14297 10.491 8.66055 10.8109 8.11211 11.0445C7.56367 11.2781 6.97461 11.3949 6.34492 11.3949C5.71523 11.3949 5.12617 11.2781 4.57773 11.0445C4.0293 10.8008 3.54687 10.4758 3.13047 10.0695C2.72422 9.65312 2.39922 9.1707 2.15547 8.62227C1.92187 8.07383 1.80508 7.48477 1.80508 6.85508Z" fill="#8091A7"/>
</svg>
