<svg width="14" height="15" viewBox="0 0 14 15" fill="none" xmlns="http://www.w3.org/2000/svg">
<path d="M11.1309 14.2441H2.86914C2.1543 14.2441 1.53906 13.9922 1.02344 13.4883C0.507812 12.9727 0.25 12.3516 0.25 11.625V3.38086C0.25 2.6543 0.507812 2.0332 1.02344 1.51758C1.53906 1.00195 2.1543 0.744141 2.86914 0.744141H11.1309C11.8457 0.744141 12.4609 1.00195 12.9766 1.51758C13.4922 2.0332 13.75 2.6543 13.75 3.38086V11.625C13.75 12.3516 13.4922 12.9727 12.9766 13.4883C12.4609 13.9922 11.8457 14.2441 11.1309 14.2441ZM2.86914 2.25586C2.56445 2.25586 2.30078 2.36719 2.07812 2.58984C1.85547 2.80078 1.74414 3.06445 1.74414 3.38086V11.625C1.74414 11.9297 1.85547 12.1934 2.07812 12.416C2.30078 12.6387 2.56445 12.75 2.86914 12.75H11.1309C11.4355 12.75 11.6992 12.6387 11.9219 12.416C12.1445 12.1934 12.2559 11.9297 12.2559 11.625V3.38086C12.2559 3.06445 12.1445 2.80078 11.9219 2.58984C11.6992 2.36719 11.4355 2.25586 11.1309 2.25586H2.86914ZM10.5332 6.61523C10.498 6.52148 10.4395 6.43945 10.3574 6.36914C10.2871 6.29883 10.1992 6.25781 10.0938 6.24609L8.30078 5.96484L7.50977 4.25977C7.46289 4.16602 7.39258 4.0957 7.29883 4.04883C7.20508 3.99023 7.10547 3.96094 7 3.96094C6.89453 3.96094 6.79492 3.99023 6.70117 4.04883C6.60742 4.0957 6.53711 4.16602 6.49023 4.25977L5.69922 5.96484L3.90625 6.22852C3.77734 6.25195 3.66602 6.31641 3.57227 6.42188C3.47852 6.52734 3.43164 6.65039 3.43164 6.79102C3.43164 6.87305 3.44336 6.94922 3.4668 7.01953C3.50195 7.07812 3.54297 7.13086 3.58984 7.17773L4.89062 8.51367L4.5918 10.4121C4.5918 10.4238 4.5918 10.4414 4.5918 10.4648C4.5918 10.4766 4.5918 10.4883 4.5918 10.5C4.5918 10.6523 4.64453 10.7871 4.75 10.9043C4.85547 11.0098 4.99023 11.0625 5.1543 11.0625C5.20117 11.0625 5.24805 11.0566 5.29492 11.0449C5.3418 11.0332 5.38281 11.0156 5.41797 10.9922L7 10.1133L8.58203 10.9922C8.61719 11.0156 8.6582 11.0332 8.70508 11.0449C8.75195 11.0566 8.79883 11.0625 8.8457 11.0625C9.00977 11.0625 9.14453 11.0098 9.25 10.9043C9.35547 10.7871 9.4082 10.6523 9.4082 10.5C9.4082 10.4883 9.4082 10.4766 9.4082 10.4648C9.4082 10.4414 9.4082 10.4238 9.4082 10.4121L9.0918 8.51367L10.4102 7.17773C10.457 7.13086 10.4922 7.07812 10.5156 7.01953C10.5508 6.94922 10.5684 6.87305 10.5684 6.79102C10.5684 6.75586 10.5625 6.72656 10.5508 6.70312C10.5508 6.66797 10.5449 6.63867 10.5332 6.61523Z" fill="#526484"/>
</svg>
