<svg xmlns="http://www.w3.org/2000/svg" width="18" height="17" fill="none"><path fill="#8091A7" d="M14.508 0H3.492C2.54 0 1.72.344 1.032 1.031.343 1.72 0 2.54 0 3.492V13.5c0 .969.344 1.797 1.031 2.484.688.672 1.508 1.008 2.461 1.008h11.016c.953 0 1.773-.336 2.46-1.008A3.387 3.387 0 0 0 18 13.5V3.492c0-.953-.344-1.773-1.031-2.46C16.28.343 15.46 0 14.508 0ZM1.992 7.008h3v3h-3v-3Zm5.016 0h9v3h-9v-3Zm9-3.516v1.5h-9v-3h7.5c.406 0 .758.149 1.055.446.296.296.445.648.445 1.054Zm-12.516-1.5h1.5v3h-3v-1.5c0-.406.149-.758.446-1.054a1.442 1.442 0 0 1 1.054-.446ZM1.992 13.5V12h3v3h-1.5c-.406 0-.758-.148-1.054-.445a1.442 1.442 0 0 1-.446-1.055ZM14.508 15h-7.5v-3h9v1.5c0 .406-.149.758-.445 1.055a1.441 1.441 0 0 1-1.055.445Z"/></svg>