<svg xmlns="http://www.w3.org/2000/svg" width="22" height="20" fill="none"><path fill="#8091A7" d="M11 11c-.078 0-.156-.008-.234-.023a.516.516 0 0 1-.211-.094l-9-4.5a1.024 1.024 0 0 1-.422-.352 1.027 1.027 0 0 1-.14-.539c0-.187.046-.36.14-.515.11-.157.25-.282.422-.375l9-4.5a.837.837 0 0 1 .21-.07 1.193 1.193 0 0 1 .47 0c.078.015.148.038.21.07l9 4.5c.172.093.305.218.399.375a.88.88 0 0 1 .164.515.917.917 0 0 1-.164.54.874.874 0 0 1-.399.35l-9 4.5a.516.516 0 0 1-.21.095A1.195 1.195 0 0 1 11 11ZM4.227 5.492 11 8.891l6.773-3.399L11 2.117 4.227 5.492Zm7.218 14.39 9-4.5a.874.874 0 0 0 .399-.35.917.917 0 0 0 .164-.54.892.892 0 0 0-.305-.68.917.917 0 0 0-.703-.304c-.078 0-.156.008-.234.023a.838.838 0 0 0-.211.07L11 17.892 2.445 13.6a.838.838 0 0 0-.21-.07A1.194 1.194 0 0 0 2 13.508a.992.992 0 0 0-.727.305.926.926 0 0 0-.28.68c0 .202.046.382.14.538.11.156.25.274.422.352l9 4.5a.516.516 0 0 0 .21.094 1.195 1.195 0 0 0 .47 0 .516.516 0 0 0 .21-.094Zm0-4.5 9-4.5a.874.874 0 0 0 .399-.35.917.917 0 0 0 .164-.54.892.892 0 0 0-.305-.68.917.917 0 0 0-.703-.304c-.078 0-.156.008-.234.023a.837.837 0 0 0-.211.07L11 13.392 2.445 9.1a.837.837 0 0 0-.21-.07A1.192 1.192 0 0 0 2 9.008a.992.992 0 0 0-.727.305.926.926 0 0 0-.28.68c0 .202.046.382.14.538.11.156.25.274.422.352l9 4.5a.516.516 0 0 0 .21.094 1.195 1.195 0 0 0 .47 0 .516.516 0 0 0 .21-.094Z"/></svg>