<svg xmlns="http://www.w3.org/2000/svg" width="22" height="21" fill="none"><path fill="#8091A7" d="M1.977 20.883c-.282 0-.524-.094-.727-.281a1.035 1.035 0 0 1-.281-.727v-.094a.208.208 0 0 0 .023-.093 9.317 9.317 0 0 1 3.14-5.39 8.778 8.778 0 0 1 2.72-1.595 8.867 8.867 0 0 1 3.21-.586c.282 0 .516.102.704.305a.917.917 0 0 1 .304.703c0 .266-.101.5-.304.703a.954.954 0 0 1-.704.281 7.61 7.61 0 0 0-2.32.399c-.75.265-1.43.625-2.039 1.078a7.04 7.04 0 0 0-1.547 1.64 6.717 6.717 0 0 0-1.008 2.04l-.023.07a4.514 4.514 0 0 0-.094.328c-.015.11-.039.227-.07.352v.047a.998.998 0 0 1-.352.585.906.906 0 0 1-.632.235Zm12.89-15.211c0-.656-.125-1.274-.375-1.852a4.53 4.53 0 0 0-1.031-1.523 5.211 5.211 0 0 0-1.524-1.055 4.673 4.673 0 0 0-1.874-.375c-.657 0-1.282.125-1.876.375a5.211 5.211 0 0 0-1.523 1.055A4.53 4.53 0 0 0 5.633 3.82a4.615 4.615 0 0 0-.375 1.852c0 .672.125 1.297.375 1.875.25.594.594 1.11 1.031 1.547.438.422.945.758 1.524 1.008a4.541 4.541 0 0 0 1.874.398c.672 0 1.297-.133 1.876-.398a5.076 5.076 0 0 0 1.523-1.008 4.793 4.793 0 0 0 1.031-1.547c.25-.578.375-1.203.375-1.875Zm-1.992 0c0 .781-.273 1.445-.82 1.992-.547.547-1.211.82-1.992.82-.766 0-1.43-.273-1.993-.82a2.712 2.712 0 0 1-.82-1.992c0-.766.273-1.422.82-1.969.563-.547 1.227-.82 1.992-.82.782 0 1.446.273 1.993.82.547.547.82 1.203.82 1.969Zm7.945 8.086h-7.008a.782.782 0 0 1-.539-.211.782.782 0 0 1-.21-.54.73.73 0 0 1 .21-.538.782.782 0 0 1 .54-.211h7.007c.203 0 .375.07.516.21.156.141.234.321.234.54a.741.741 0 0 1-.234.539.701.701 0 0 1-.516.21Zm.75 2.46a.693.693 0 0 0-.234-.538.701.701 0 0 0-.516-.211h-7.008a.782.782 0 0 0-.539.21.73.73 0 0 0-.21.54c0 .203.07.383.21.539.157.14.336.21.54.21h7.007c.203 0 .375-.07.516-.21a.74.74 0 0 0 .234-.54Zm-.75 3.938h-7.008a.782.782 0 0 1-.539-.21.73.73 0 0 1-.21-.54c0-.203.07-.375.21-.515a.741.741 0 0 1 .54-.235h7.007c.203 0 .375.078.516.235.156.14.234.312.234.515a.693.693 0 0 1-.234.54.701.701 0 0 1-.516.21Z"/></svg>