<svg width="18" height="5" viewBox="0 0 18 5" fill="none" xmlns="http://www.w3.org/2000/svg">
<path d="M9 4.75C8.42708 4.75 7.93229 4.54818 7.51562 4.14453C7.11198 3.74089 6.91016 3.24609 6.91016 2.66016C6.91016 2.08724 7.11198 1.59896 7.51562 1.19531C7.93229 0.791667 8.42708 0.589844 9 0.589844C9.57292 0.589844 10.0612 0.791667 10.4648 1.19531C10.8815 1.59896 11.0898 2.08724 11.0898 2.66016C11.0898 3.23307 10.8815 3.72786 10.4648 4.14453C10.0612 4.54818 9.57292 4.75 9 4.75ZM15.6602 4.75C15.0872 4.75 14.599 4.54818 14.1953 4.14453C13.7917 3.74089 13.5898 3.24609 13.5898 2.66016C13.5898 2.08724 13.7917 1.59896 14.1953 1.19531C14.599 0.791667 15.0872 0.589844 15.6602 0.589844C16.2461 0.589844 16.7409 0.791667 17.1445 1.19531C17.5482 1.59896 17.75 2.08724 17.75 2.66016C17.75 3.23307 17.5417 3.72786 17.125 4.14453C16.7214 4.54818 16.2331 4.75 15.6602 4.75ZM2.33984 4.75C1.75391 4.75 1.25911 4.54818 0.855469 4.14453C0.451823 3.74089 0.25 3.24609 0.25 2.66016C0.25 2.08724 0.451823 1.59896 0.855469 1.19531C1.25911 0.791667 1.75391 0.589844 2.33984 0.589844C2.91276 0.589844 3.40104 0.791667 3.80469 1.19531C4.20833 1.59896 4.41016 2.08724 4.41016 2.66016C4.41016 3.23307 4.20833 3.72786 3.80469 4.14453C3.40104 4.54818 2.91276 4.75 2.33984 4.75Z" fill="#526484"/>
</svg>
